<svg width="122" height="70" viewBox="0 0 122 70" fill="none" xmlns="http://www.w3.org/2000/svg">
<path d="M116.869 62.1123H33.7559C31.0831 62.1123 28.9299 59.9486 28.9299 57.2863V57.2333H121.706V57.2863C121.695 59.9486 119.532 62.1123 116.869 62.1123Z" fill="#080808"/>
<path d="M118.757 58.3894L31.8573 58.4C29.6087 58.4 28.3995 57.6788 29.1314 56.809L40.7669 43.1265H109.858L121.494 56.809C122.215 57.6575 121.006 58.3894 118.757 58.3894Z" fill="#242424"/>
<path d="M44.511 44.7175H41.87L42.3791 44.0917H44.9671L44.511 44.7175Z" fill="#5B6266"/>
<path d="M59.1588 44.7175H46.2081L46.643 44.0917H59.4028L59.1588 44.7175Z" fill="#5B6266"/>
<path d="M74.3157 44.7175H61.365L61.5665 44.0917H74.3263L74.3157 44.7175Z" fill="#5B6266"/>
<path d="M89.3664 44.7175H76.4157L76.3945 44.0917H89.1543L89.3664 44.7175Z" fill="#5B6266"/>
<path d="M99.4746 44.7175H90.4483L90.2256 44.0811H99.1139L99.4746 44.7175Z" fill="#5B6266"/>
<path d="M43.6412 45.9054H40.9365L41.5623 45.1205H44.214L43.6412 45.9054Z" fill="#5B6266"/>
<path d="M46.9612 45.9054H44.2565L44.8186 45.1205H47.4703L46.9612 45.9054Z" fill="#5B6266"/>
<path d="M50.281 45.9054H47.5763L48.0748 45.1205H50.7265L50.281 45.9054Z" fill="#5B6266"/>
<path d="M53.7175 45.9054H51.0128L51.4477 45.1205H54.1099L53.7175 45.9054Z" fill="#5B6266"/>
<path d="M57.1224 45.9054H54.4177L54.7996 45.1205H57.4512L57.1224 45.9054Z" fill="#5B6266"/>
<path d="M60.4846 45.9054H57.7799L58.0981 45.1205H60.7498L60.4846 45.9054Z" fill="#5B6266"/>
<path d="M76.6596 45.9054H73.955L73.9762 45.1205H76.6384L76.6596 45.9054Z" fill="#5B6266"/>
<path d="M89.7588 45.9054H83.5115L83.363 45.1205H89.4937L89.7588 45.9054Z" fill="#5B6266"/>
<path d="M46.346 46.8494L46.8764 46.0327H40.8412L40.1836 46.8494H46.346Z" fill="#5B6266"/>
<path d="M49.7295 46.8494H46.9718L47.4915 46.0327H50.2068L49.7295 46.8494Z" fill="#5B6266"/>
<path d="M53.2403 46.8494H50.4825L50.9386 46.0327H53.6539L53.2403 46.8494Z" fill="#5B6266"/>
<path d="M56.7193 46.8494H53.9615L54.354 46.0327H57.0693L56.7193 46.8494Z" fill="#5B6266"/>
<path d="M60.1558 46.8494H57.3981L57.7269 46.0327H60.4422L60.1558 46.8494Z" fill="#5B6266"/>
<path d="M76.6915 46.8494H73.9232L73.955 46.0327H76.6597L76.6915 46.8494Z" fill="#5B6266"/>
<path d="M45.699 47.8358L46.2612 46.9767L40.0881 46.9873L39.4093 47.8358H45.699Z" fill="#5B6266"/>
<path d="M49.1674 47.8358H46.3354L46.887 46.9873L49.6553 46.9767L49.1674 47.8358Z" fill="#5B6266"/>
<path d="M52.7525 47.8358H49.9312L50.4085 46.9873L53.1768 46.9767L52.7525 47.8358Z" fill="#5B6266"/>
<path d="M56.3056 47.8358H53.4843L53.8979 46.9873L56.6662 46.9767L56.3056 47.8358Z" fill="#5B6266"/>
<path d="M59.8164 47.8358H56.995L57.345 46.9873L60.1133 46.9767L59.8164 47.8358Z" fill="#5B6266"/>
<path d="M76.7233 47.8358H73.902L73.9232 46.9873L76.6915 46.9767L76.7233 47.8358Z" fill="#5B6266"/>
<path d="M90.0771 46.8494L89.8014 46.0327H83.5328L83.6919 46.8494H87.1285L87.3936 47.8358H90.4059L90.0771 46.8494Z" fill="#5B6266"/>
<path d="M44.1398 48.8752L44.7444 47.9737H39.3032L38.5925 48.8752H44.1398Z" fill="#5B6266"/>
<path d="M48.5629 48.8752H45.6779L46.2506 47.9737H49.0826L48.5629 48.8752Z" fill="#5B6266"/>
<path d="M52.2433 48.8752H49.3477L49.8568 47.9737H52.6887L52.2433 48.8752Z" fill="#5B6266"/>
<path d="M55.8814 48.8752H52.9858L53.4207 47.9737H56.2527L55.8814 48.8752Z" fill="#5B6266"/>
<path d="M59.4663 48.8752H56.5813L56.9419 47.9737H59.7739L59.4663 48.8752Z" fill="#5B6266"/>
<path d="M63.7727 45.9054H61.068L61.3225 45.1205H63.9742L63.7727 45.9054Z" fill="#5B6266"/>
<path d="M63.5181 46.8494H60.7604L61.0255 46.0327H63.7302L63.5181 46.8494Z" fill="#5B6266"/>
<path d="M63.2529 47.8358H60.4315L60.7073 46.9873L63.4862 46.9767L63.2529 47.8358Z" fill="#5B6266"/>
<path d="M62.9772 48.8752H60.0922L60.3892 47.9737H63.2211L62.9772 48.8752Z" fill="#5B6266"/>
<path d="M66.9864 45.9054H64.2924L64.4833 45.1205H67.1455L66.9864 45.9054Z" fill="#5B6266"/>
<path d="M66.8062 46.8494H64.0485L64.2606 46.0327H66.9653L66.8062 46.8494Z" fill="#5B6266"/>
<path d="M66.6259 47.8358H63.7939L64.0167 46.9873L66.785 46.9767L66.6259 47.8358Z" fill="#5B6266"/>
<path d="M66.4243 48.8752H63.5393L63.762 47.9737H66.594L66.4243 48.8752Z" fill="#5B6266"/>
<path d="M70.3064 45.9054H67.6017L67.7502 45.1205H70.4018L70.3064 45.9054Z" fill="#5B6266"/>
<path d="M70.2004 46.8494H67.4426L67.5805 46.0327H70.2958L70.2004 46.8494Z" fill="#5B6266"/>
<path d="M70.0837 47.8358H67.2623L67.4108 46.9873L70.1898 46.9767L70.0837 47.8358Z" fill="#5B6266"/>
<path d="M69.9669 48.8752H67.0819L67.241 47.9737H70.073L69.9669 48.8752Z" fill="#5B6266"/>
<path d="M73.4989 45.9054H70.7942L70.879 45.1205H73.5307L73.4989 45.9054Z" fill="#5B6266"/>
<path d="M73.4672 46.8494H70.6989L70.7837 46.0327H73.499L73.4672 46.8494Z" fill="#5B6266"/>
<path d="M73.4248 47.8358H70.6034L70.6882 46.9873L73.4566 46.9767L73.4248 47.8358Z" fill="#5B6266"/>
<path d="M73.3823 48.8752H70.4867L70.5822 47.9737H73.4141L73.3823 48.8752Z" fill="#5B6266"/>
<path d="M76.7552 48.8752H73.8596L73.8914 47.9737H76.7234L76.7552 48.8752Z" fill="#5B6266"/>
<path d="M90.7453 48.8752H84.0738L83.9041 47.9737H90.4483L90.7453 48.8752Z" fill="#5B6266"/>
<path d="M40.6928 49.9571H37.7335L38.476 49.0131H41.3716L40.6928 49.9571Z" fill="#5B6266"/>
<path d="M44.3201 49.9571H41.3608L42.0291 49.0131H44.9247L44.3201 49.9571Z" fill="#5B6266"/>
<path d="M62.6908 49.9571H44.9884L45.5824 49.0131H62.9454L62.6908 49.9571Z" fill="#5B6266"/>
<path d="M69.8398 49.9571H66.8911L67.0502 49.0131H69.9458L69.8398 49.9571Z" fill="#5B6266"/>
<path d="M66.2122 49.9571H63.2635L63.4969 49.0131H66.3925L66.2122 49.9571Z" fill="#5B6266"/>
<path d="M83.9783 54.7407H65.3L66.1168 50.4875H83.2677L83.9783 54.7407Z" fill="#5B6266"/>
<path d="M81.1888 55.865H68.0578C66.4138 55.865 65.1728 55.3559 65.2895 54.7513V54.7407H83.9677V54.7513C84.0844 55.3665 82.8328 55.865 81.1888 55.865Z" fill="#A1AAB5"/>
<path d="M73.3293 49.9571H70.3806L70.4761 49.0131H73.3717L73.3293 49.9571Z" fill="#5B6266"/>
<path d="M76.787 49.9571H73.8278L73.8596 49.0131H76.7552L76.787 49.9571Z" fill="#5B6266"/>
<path d="M79.8099 45.9054H77.1052L77.0734 45.1205H79.725L79.8099 45.9054Z" fill="#5B6266"/>
<path d="M79.9054 46.8494H77.1477L77.1052 46.0327H79.8205L79.9054 46.8494Z" fill="#5B6266"/>
<path d="M80.0114 47.8358H77.19L77.1476 46.9873L79.9159 46.9767L80.0114 47.8358Z" fill="#5B6266"/>
<path d="M80.1175 48.8752H77.2325L77.1901 47.9737H80.022L80.1175 48.8752Z" fill="#5B6266"/>
<path d="M80.2236 49.9571H77.275L77.2325 49.0131H80.1282L80.2236 49.9571Z" fill="#5B6266"/>
<path d="M82.9707 45.9054H80.266L80.1705 45.1205H82.8328L82.9707 45.9054Z" fill="#5B6266"/>
<path d="M93.5773 45.9054H90.8832L90.5968 45.1205H93.2485L93.5773 45.9054Z" fill="#5B6266"/>
<path d="M96.876 45.9054H94.1713L93.8213 45.1205H96.4836L96.876 45.9054Z" fill="#5B6266"/>
<path d="M100.164 45.9054H97.4593L97.0563 45.1205H99.7079L100.164 45.9054Z" fill="#5B6266"/>
<path d="M93.9802 46.8494H91.2225L90.9255 46.0327H93.6302L93.9802 46.8494Z" fill="#5B6266"/>
<path d="M97.3427 46.8494H94.5744L94.2244 46.0327H96.9291L97.3427 46.8494Z" fill="#5B6266"/>
<path d="M100.705 46.8494H97.9366L97.5229 46.0327H100.228L100.705 46.8494Z" fill="#5B6266"/>
<path d="M103.844 45.9054H101.14L100.673 45.1205H103.325L103.844 45.9054Z" fill="#5B6266"/>
<path d="M107.133 45.9054H104.428L103.898 45.1205H106.549L107.133 45.9054Z" fill="#5B6266"/>
<path d="M110.421 45.9054H107.716L107.133 45.1205H109.784L110.421 45.9054Z" fill="#5B6266"/>
<path d="M110.421 45.9054L107.133 45.1205H109.784L110.421 45.9054Z" fill="#747D82"/>
<path d="M104.46 46.8494H101.702L101.214 46.0327H103.919L104.46 46.8494Z" fill="#5B6266"/>
<path d="M107.822 46.8494H105.064L104.513 46.0327H107.217L107.822 46.8494Z" fill="#5B6266"/>
<path d="M105.128 47.8571H102.296L101.787 46.9979H104.555L105.128 47.8571Z" fill="#5B6266"/>
<path d="M108.564 47.8571H105.732L105.16 46.9979H107.928L108.564 47.8571Z" fill="#5B6266"/>
<path d="M110.516 46.0327H107.811L109.169 47.8571H112.001L110.516 46.0327Z" fill="#5B6266"/>
<path d="M110.516 46.0327H107.811L112.001 47.8571L110.516 46.0327Z" fill="#747D82"/>
<path d="M105.807 48.8859H102.911L102.381 47.9949H105.213L105.807 48.8859Z" fill="#5B6266"/>
<path d="M109.317 48.8859H106.432L105.828 47.9949H108.66L109.317 48.8859Z" fill="#5B6266"/>
<path d="M98.3396 48.8752H95.4546L95.0621 47.9737H97.8941L98.3396 48.8752Z" fill="#5B6266"/>
<path d="M95.2849 49.9571H92.3256L91.9968 49.0131H94.8924L95.2849 49.9571Z" fill="#5B6266"/>
<path d="M98.8806 49.9571H95.9214L95.5183 49.0131H98.4139L98.8806 49.9571Z" fill="#5B6266"/>
<path d="M102.476 49.9571H99.517L99.0397 49.0131H101.935L102.476 49.9571Z" fill="#5B6266"/>
<path d="M110.102 49.9571L109.413 49.0131H102.985L103.548 49.9571H110.102Z" fill="#5B6266"/>
<path d="M99.4746 44.7175L90.2256 44.0811H99.1139L99.4746 44.7175Z" fill="#747D82"/>
<path d="M93.5773 45.9054L90.5968 45.1205H93.2485L93.5773 45.9054Z" fill="#747D82"/>
<path d="M96.876 45.9054L93.8213 45.1205H96.4836L96.876 45.9054Z" fill="#747D82"/>
<path d="M100.164 45.9054L97.0563 45.1205H99.7079L100.164 45.9054Z" fill="#747D82"/>
<path d="M93.9802 46.8494L90.9255 46.0327H93.6302L93.9802 46.8494Z" fill="#747D82"/>
<path d="M97.3427 46.8494L94.2244 46.0327H96.9291L97.3427 46.8494Z" fill="#747D82"/>
<path d="M100.705 46.8494L97.5229 46.0327H100.228L100.705 46.8494Z" fill="#747D82"/>
<path d="M103.844 45.9054L100.673 45.1205H103.325L103.844 45.9054Z" fill="#747D82"/>
<path d="M107.133 45.9054L103.898 45.1205H106.549L107.133 45.9054Z" fill="#747D82"/>
<path d="M104.46 46.8494L101.214 46.0327H103.919L104.46 46.8494Z" fill="#747D82"/>
<path d="M107.822 46.8494L104.513 46.0327H107.217L107.822 46.8494Z" fill="#747D82"/>
<path d="M105.128 47.8571L101.787 46.9979H104.555L105.128 47.8571Z" fill="#747D82"/>
<path d="M108.564 47.8571L105.16 46.9979H107.928L108.564 47.8571Z" fill="#747D82"/>
<path d="M105.807 48.8859L102.381 47.9949H105.213L105.807 48.8859Z" fill="#747D82"/>
<path d="M109.317 48.8859L105.828 47.9949H108.66L109.317 48.8859Z" fill="#747D82"/>
<path d="M98.3396 48.8752L95.0621 47.9737H97.8941L98.3396 48.8752Z" fill="#747D82"/>
<path d="M95.2849 49.9571L91.9968 49.0131H94.8924L95.2849 49.9571Z" fill="#747D82"/>
<path d="M98.8806 49.9571L95.5183 49.0131H98.4139L98.8806 49.9571Z" fill="#747D82"/>
<path d="M102.476 49.9571L99.0397 49.0131H101.935L102.476 49.9571Z" fill="#747D82"/>
<path d="M110.102 49.9571L109.413 49.0131H102.985L110.102 49.9571Z" fill="#747D82"/>
<path d="M112.107 47.9949H109.275L110.739 49.9571H113.698L112.107 47.9949Z" fill="#5B6266"/>
<path d="M112.107 47.9949H109.275L113.698 49.9571L112.107 47.9949Z" fill="#747D82"/>
<path d="M83.1298 46.8494H80.3721L80.2766 46.0327H82.9919L83.1298 46.8494Z" fill="#5B6266"/>
<path d="M83.3101 47.8358H80.4888L80.3827 46.9873L83.1616 46.9767L83.3101 47.8358Z" fill="#5B6266"/>
<path d="M86.7042 47.8358H83.8828L83.7131 46.9873L86.4921 46.9767L86.7042 47.8358Z" fill="#5B6266"/>
<path d="M83.4903 48.8752H80.6053L80.4993 47.9737H83.3312L83.4903 48.8752Z" fill="#5B6266"/>
<path d="M83.6813 49.9571H80.722L80.616 49.0131H83.5116L83.6813 49.9571Z" fill="#5B6266"/>
<path d="M87.2345 49.9571H84.2753L84.1056 49.0131H87.0012L87.2345 49.9571Z" fill="#5B6266"/>
<path d="M91.1059 49.9571H87.6906L87.4467 49.0131H90.7984L91.1059 49.9571Z" fill="#626A6E"/>
<path d="M44.5111 44.7175L42.3792 44.0917H44.9672L44.5111 44.7175Z" fill="#747D82"/>
<path d="M59.1588 44.7175L46.6429 44.0917H59.4027L59.1588 44.7175Z" fill="#747D82"/>
<path d="M74.3157 44.7175L61.5665 44.0917H74.3263L74.3157 44.7175Z" fill="#747D82"/>
<path d="M89.3664 44.7175L76.3945 44.0917H89.1543L89.3664 44.7175Z" fill="#747D82"/>
<path d="M43.6414 45.9054L41.5625 45.1205H44.2142L43.6414 45.9054Z" fill="#747D82"/>
<path d="M46.9611 45.9054L44.8186 45.1205H47.4703L46.9611 45.9054Z" fill="#747D82"/>
<path d="M50.2811 45.9054L48.075 45.1205H50.7266L50.2811 45.9054Z" fill="#747D82"/>
<path d="M53.7176 45.9054L51.4478 45.1205H54.11L53.7176 45.9054Z" fill="#747D82"/>
<path d="M57.1223 45.9054L54.7994 45.1205H57.4511L57.1223 45.9054Z" fill="#747D82"/>
<path d="M60.4846 45.9054L58.0981 45.1205H60.7498L60.4846 45.9054Z" fill="#747D82"/>
<path d="M76.6597 45.9054L73.9762 45.1205H76.6385L76.6597 45.9054Z" fill="#747D82"/>
<path d="M89.7588 45.9054L83.363 45.1205H89.4937L89.7588 45.9054Z" fill="#747D82"/>
<path d="M46.346 46.8494L46.8764 46.0327H40.8412L46.346 46.8494Z" fill="#747D82"/>
<path d="M49.7296 46.8494L47.4916 46.0327H50.2069L49.7296 46.8494Z" fill="#747D82"/>
<path d="M53.2404 46.8494L50.9387 46.0327H53.654L53.2404 46.8494Z" fill="#747D82"/>
<path d="M56.7193 46.8494L54.354 46.0327H57.0693L56.7193 46.8494Z" fill="#747D82"/>
<path d="M60.1558 46.8494L57.7269 46.0327H60.4422L60.1558 46.8494Z" fill="#747D82"/>
<path d="M76.6915 46.8494L73.955 46.0327H76.6596L76.6915 46.8494Z" fill="#747D82"/>
<path d="M45.699 47.8358L46.2612 46.9767L40.0881 46.9873L45.699 47.8358Z" fill="#747D82"/>
<path d="M49.1674 47.8358L46.887 46.9873L49.6553 46.9767L49.1674 47.8358Z" fill="#747D82"/>
<path d="M52.7524 47.8358L50.4083 46.9873L53.1767 46.9767L52.7524 47.8358Z" fill="#747D82"/>
<path d="M56.3057 47.8358L53.8979 46.9873L56.6663 46.9767L56.3057 47.8358Z" fill="#747D82"/>
<path d="M59.8164 47.8358L57.3451 46.9873L60.1134 46.9767L59.8164 47.8358Z" fill="#747D82"/>
<path d="M76.7234 47.8358L73.9232 46.9873L76.6915 46.9767L76.7234 47.8358Z" fill="#747D82"/>
<path d="M90.0771 46.8494L89.8014 46.0327H83.5328L87.1285 46.8494L90.4059 47.8358L90.0771 46.8494Z" fill="#747D82"/>
<path d="M44.1398 48.8752L44.7444 47.9737H39.3032L44.1398 48.8752Z" fill="#747D82"/>
<path d="M48.5627 48.8752L46.2505 47.9737H49.0825L48.5627 48.8752Z" fill="#747D82"/>
<path d="M52.2433 48.8752L49.8568 47.9737H52.6888L52.2433 48.8752Z" fill="#747D82"/>
<path d="M55.8813 48.8752L53.4205 47.9737H56.2525L55.8813 48.8752Z" fill="#747D82"/>
<path d="M59.4664 48.8752L56.942 47.9737H59.774L59.4664 48.8752Z" fill="#747D82"/>
<path d="M63.7728 45.9054L61.3226 45.1205H63.9743L63.7728 45.9054Z" fill="#747D82"/>
<path d="M63.5182 46.8494L61.0256 46.0327H63.7303L63.5182 46.8494Z" fill="#747D82"/>
<path d="M63.2529 47.8358L60.7073 46.9873L63.4862 46.9767L63.2529 47.8358Z" fill="#747D82"/>
<path d="M62.9772 48.8752L60.3892 47.9737H63.2211L62.9772 48.8752Z" fill="#747D82"/>
<path d="M66.9866 45.9054L64.4834 45.1205H67.1457L66.9866 45.9054Z" fill="#747D82"/>
<path d="M66.8062 46.8494L64.2606 46.0327H66.9653L66.8062 46.8494Z" fill="#747D82"/>
<path d="M66.6258 47.8358L64.0166 46.9873L66.7849 46.9767L66.6258 47.8358Z" fill="#747D82"/>
<path d="M66.4243 48.8752L63.7621 47.9737H66.5941L66.4243 48.8752Z" fill="#747D82"/>
<path d="M70.3063 45.9054L67.7501 45.1205H70.4018L70.3063 45.9054Z" fill="#747D82"/>
<path d="M70.2003 46.8494L67.5804 46.0327H70.2957L70.2003 46.8494Z" fill="#747D82"/>
<path d="M70.0836 47.8358L67.4108 46.9873L70.1897 46.9767L70.0836 47.8358Z" fill="#747D82"/>
<path d="M69.967 48.8752L67.2411 47.9737H70.0731L69.967 48.8752Z" fill="#747D82"/>
<path d="M73.499 45.9054L70.8792 45.1205H73.5308L73.499 45.9054Z" fill="#747D82"/>
<path d="M73.467 46.8494L70.7836 46.0327H73.4989L73.467 46.8494Z" fill="#747D82"/>
<path d="M73.4247 47.8358L70.6882 46.9873L73.4566 46.9767L73.4247 47.8358Z" fill="#747D82"/>
<path d="M73.3823 48.8752L70.5822 47.9737H73.4141L73.3823 48.8752Z" fill="#747D82"/>
<path d="M76.7551 48.8752L73.8914 47.9737H76.7233L76.7551 48.8752Z" fill="#747D82"/>
<path d="M90.7453 48.8752L83.9041 47.9737H90.4483L90.7453 48.8752Z" fill="#747D82"/>
<path d="M40.6927 49.9571L38.476 49.0131H41.3716L40.6927 49.9571Z" fill="#747D82"/>
<path d="M44.3201 49.9571L42.0291 49.0131H44.9247L44.3201 49.9571Z" fill="#747D82"/>
<path d="M62.6908 49.9571L45.5823 49.0131H62.9453L62.6908 49.9571Z" fill="#747D82"/>
<path d="M69.8396 49.9571L67.05 49.0131H69.9457L69.8396 49.9571Z" fill="#747D82"/>
<path d="M66.2121 49.9571L63.4968 49.0131H66.3924L66.2121 49.9571Z" fill="#747D82"/>
<path d="M81.1888 55.865H68.0578C66.4138 55.865 65.1728 55.3559 65.2895 54.7513V54.7407H83.9677V54.7513C84.0844 55.3665 82.8328 55.865 81.1888 55.865Z" fill="#A1AAB5"/>
<path d="M81.1888 55.865H68.0578C66.4138 55.865 65.1728 55.3559 65.2895 54.7513V54.7407C65.3001 54.7407 82.8328 55.865 81.1888 55.865Z" fill="#7E868F"/>
<path d="M73.3293 49.9571L70.4761 49.0131H73.3717L73.3293 49.9571Z" fill="#747D82"/>
<path d="M76.787 49.9571L73.8596 49.0131H76.7552L76.787 49.9571Z" fill="#747D82"/>
<path d="M79.8099 45.9054L77.0734 45.1205H79.725L79.8099 45.9054Z" fill="#747D82"/>
<path d="M79.9054 46.8494L77.1052 46.0327H79.8205L79.9054 46.8494Z" fill="#747D82"/>
<path d="M80.0114 47.8358L77.1476 46.9873L79.9159 46.9767L80.0114 47.8358Z" fill="#747D82"/>
<path d="M80.1175 48.8752L77.1901 47.9737H80.022L80.1175 48.8752Z" fill="#747D82"/>
<path d="M80.2236 49.9571L77.2325 49.0131H80.1282L80.2236 49.9571Z" fill="#747D82"/>
<path d="M82.9707 45.9054L80.1705 45.1205H82.8328L82.9707 45.9054Z" fill="#747D82"/>
<path d="M83.1298 46.8494L80.2766 46.0327H82.9919L83.1298 46.8494Z" fill="#747D82"/>
<path d="M83.3101 47.8358L80.3827 46.9873L83.1616 46.9767L83.3101 47.8358Z" fill="#747D82"/>
<path d="M86.7042 47.8358L83.7131 46.9873L86.4921 46.9767L86.7042 47.8358Z" fill="#747D82"/>
<path d="M83.4903 48.8752L80.4993 47.9737H83.3312L83.4903 48.8752Z" fill="#747D82"/>
<path d="M83.6813 49.9571L80.616 49.0131H83.5116L83.6813 49.9571Z" fill="#747D82"/>
<path d="M87.2345 49.9571L84.1056 49.0131H87.0012L87.2345 49.9571Z" fill="#747D82"/>
<path d="M91.1059 49.9571L87.4467 49.0131H90.7984L91.1059 49.9571Z" fill="#747D82"/>
<path d="M106.878 44.1978H102.084L102.02 44.0917H106.793L106.878 44.1978Z" fill="black"/>
<path d="M107.069 44.4523H102.254L102.179 44.3463H106.995L107.069 44.4523Z" fill="black"/>
<path d="M107.27 44.7175H102.423L102.349 44.6115H107.186L107.27 44.7175Z" fill="black"/>
<path d="M104.916 44.1978H104.046L103.972 44.0811H104.842L104.916 44.1978Z" fill="#7CED49"/>
<path d="M111.354 56.2363H105.637L104.799 54.7407H110.357L111.354 56.2363Z" fill="#D9B248"/>
<path d="M118.291 56.2363H112.574L111.534 54.7407H117.092L118.291 56.2363Z" fill="#3FD9FF"/>
<path d="M43.1534 0H107.525C108.808 0 109.837 1.03944 109.837 2.31224V43.1159H40.8412V2.31224C40.8412 1.03944 41.8806 0 43.1534 0Z" fill="#0A0A0A"/>
<path d="M108.077 2.01526H42.5807V39.7324H108.077V2.01526Z" fill="white"/>
<path d="M108.077 37.6005H42.5807V39.7324H108.077V37.6005Z" fill="#7296D4"/>
<path d="M54.8419 40.9203H42.5807V41.7476H54.8419V40.9203Z" fill="#474747"/>
<path d="M50.419 37.8444H44.3414V39.4248H50.419V37.8444Z" fill="#3E5173"/>
<rect x="68.1625" y="7.42462" width="31.8199" height="3.18199" fill="#00140E"/>
<rect x="68.4125" y="12.978" width="31.3199" height="2.68199" stroke="#00140E" stroke-width="0.5"/>
<rect x="68.4125" y="23.5845" width="31.3199" height="2.68199" stroke="#00140E" stroke-width="0.5"/>
<rect x="68.1625" y="18.0312" width="31.8199" height="3.18199" fill="#00140E"/>
<mask id="mask0_288_231" style="mask-type:luminance" maskUnits="userSpaceOnUse" x="50" y="8" width="14" height="18">
<path d="M50.1312 8.1673V22.1453H50.1414C50.3373 23.7705 53.1721 25.0612 56.6421 25.0612C60.1122 25.0612 62.9503 23.7705 63.1429 22.1453H63.1564V8.1673H50.1312Z" fill="white"/>
</mask>
<g mask="url(#mask0_288_231)">
<path d="M59.8014 13.2287C59.8014 12.634 59.4365 12.4482 59.1392 12.4482C58.8418 12.4482 58.4769 12.6374 58.4769 13.2287C58.4769 13.8233 58.8418 14.3031 59.1392 14.3031C59.4365 14.3031 59.8014 13.82 59.8014 13.2287Z" fill="#F2BD6D"/>
</g>
<mask id="mask1_288_231" style="mask-type:luminance" maskUnits="userSpaceOnUse" x="50" y="8" width="14" height="18">
<path d="M50.1312 8.1673V22.1453H50.1414C50.3373 23.7705 53.1721 25.0612 56.6421 25.0612C60.1122 25.0612 62.9503 23.7705 63.1429 22.1453H63.1564V8.1673H50.1312Z" fill="white"/>
</mask>
<g mask="url(#mask1_288_231)">
<path d="M54.8145 13.2287C54.8145 12.634 54.4496 12.4482 54.1522 12.4482C53.8549 12.4482 53.49 12.6374 53.49 13.2287C53.49 13.8233 53.8549 14.3031 54.1522 14.3031C54.4496 14.3031 54.8145 13.82 54.8145 13.2287Z" fill="#F2BD6D"/>
</g>
<mask id="mask2_288_231" style="mask-type:luminance" maskUnits="userSpaceOnUse" x="50" y="8" width="14" height="18">
<path d="M50.1312 8.1673V22.1453H50.1414C50.3373 23.7705 53.1721 25.0612 56.6421 25.0612C60.1122 25.0612 62.9503 23.7705 63.1429 22.1453H63.1564V8.1673H50.1312Z" fill="white"/>
</mask>
<g mask="url(#mask2_288_231)">
<path d="M56.6456 27.4298V16.9048L52.3816 18.0097V27.4298H56.6456Z" fill="#2D788C"/>
</g>
<mask id="mask3_288_231" style="mask-type:luminance" maskUnits="userSpaceOnUse" x="50" y="8" width="14" height="18">
<path d="M50.1312 8.1673V22.1453H50.1414C50.3373 23.7705 53.1721 25.0612 56.6421 25.0612C60.1122 25.0612 62.9503 23.7705 63.1429 22.1453H63.1564V8.1673H50.1312Z" fill="white"/>
</mask>
<g mask="url(#mask3_288_231)">
<path d="M60.9097 27.4298V18.0097L56.6456 16.9048V27.4298H60.9097Z" fill="#2D788C"/>
</g>
<mask id="mask4_288_231" style="mask-type:luminance" maskUnits="userSpaceOnUse" x="50" y="8" width="14" height="18">
<path d="M50.1312 8.1673V22.1453H50.1414C50.3373 23.7705 53.1721 25.0612 56.6421 25.0612C60.1122 25.0612 62.9503 23.7705 63.1429 22.1453H63.1564V8.1673H50.1312Z" fill="white"/>
</mask>
<g mask="url(#mask4_288_231)">
<path d="M58.3249 15.5262H54.9697V19.2497H58.3249V15.5262Z" fill="#F2BD6D"/>
</g>
<mask id="mask5_288_231" style="mask-type:luminance" maskUnits="userSpaceOnUse" x="50" y="8" width="14" height="18">
<path d="M50.1312 8.1673V22.1453H50.1414C50.3373 23.7705 53.1721 25.0612 56.6421 25.0612C60.1122 25.0612 62.9503 23.7705 63.1429 22.1453H63.1564V8.1673H50.1312Z" fill="white"/>
</mask>
<g mask="url(#mask5_288_231)">
<path d="M59.2912 13.0125C59.2912 10.6406 57.8315 9.8905 56.6456 9.8905C55.4596 9.8905 54 10.6406 54 13.0125C54 15.3844 55.4596 17.3069 56.6456 17.3069C57.8315 17.3069 59.2912 15.3844 59.2912 13.0125Z" fill="#FFD99E"/>
</g>
<mask id="mask6_288_231" style="mask-type:luminance" maskUnits="userSpaceOnUse" x="50" y="8" width="14" height="18">
<path d="M50.1312 8.1673V22.1453H50.1414C50.3373 23.7705 53.1721 25.0612 56.6421 25.0612C60.1122 25.0612 62.9503 23.7705 63.1429 22.1453H63.1564V8.1673H50.1312Z" fill="white"/>
</mask>
<g mask="url(#mask6_288_231)">
<path d="M54.0306 13.4584C54.3245 11.5933 53.5069 11.9346 56.6458 11.4649C58.0446 11.2555 59.1596 10.8872 59.261 13.4584L59.788 12.9077C59.7982 12.759 59.8016 12.6103 59.8016 12.4583C59.8016 9.7823 58.3892 8.93085 56.6458 8.93085C54.9023 8.93085 53.49 9.77892 53.49 12.4583C53.49 12.6103 53.4967 12.759 53.5035 12.9077L54.0306 13.4584Z" fill="#2D2D2E"/>
</g>
<mask id="mask7_288_231" style="mask-type:luminance" maskUnits="userSpaceOnUse" x="50" y="8" width="14" height="18">
<path d="M50.1312 8.1673V22.1453H50.1414C50.3373 23.7705 53.1721 25.0612 56.6421 25.0612C60.1122 25.0612 62.9503 23.7705 63.1429 22.1453H63.1564V8.1673H50.1312Z" fill="white"/>
</mask>
<g mask="url(#mask7_288_231)">
<path d="M54.9697 18.5841V18.7294L56.6355 24.8213H56.6557L58.3215 18.7294V18.5841H54.9697Z" fill="#E3E1DE"/>
</g>
<mask id="mask8_288_231" style="mask-type:luminance" maskUnits="userSpaceOnUse" x="50" y="8" width="14" height="18">
<path d="M50.1312 8.1673V22.1453H50.1414C50.3373 23.7705 53.1721 25.0612 56.6421 25.0612C60.1122 25.0612 62.9503 23.7705 63.1429 22.1453H63.1564V8.1673H50.1312Z" fill="white"/>
</mask>
<g mask="url(#mask8_288_231)">
<path d="M52.3814 27.4298V18.0097L51.3374 18.2732C50.7664 18.2732 50.3035 19.199 50.3035 20.3444V27.4331H52.3814V27.4298Z" fill="#348BA2"/>
</g>
<mask id="mask9_288_231" style="mask-type:luminance" maskUnits="userSpaceOnUse" x="50" y="8" width="14" height="18">
<path d="M50.1312 8.1673V22.1453H50.1414C50.3373 23.7705 53.1721 25.0612 56.6421 25.0612C60.1122 25.0612 62.9503 23.7705 63.1429 22.1453H63.1564V8.1673H50.1312Z" fill="white"/>
</mask>
<g mask="url(#mask9_288_231)">
<path d="M62.9876 27.4298V20.3412C62.9876 19.1957 62.5247 18.27 61.9537 18.27L60.9097 18.0064V27.4265H62.9876V27.4298Z" fill="#348BA2"/>
</g>
<mask id="mask10_288_231" style="mask-type:luminance" maskUnits="userSpaceOnUse" x="50" y="8" width="14" height="18">
<path d="M50.1312 8.1673V22.1453H50.1414C50.3373 23.7705 53.1721 25.0612 56.6421 25.0612C60.1122 25.0612 62.9503 23.7705 63.1429 22.1453H63.1564V8.1673H50.1312Z" fill="white"/>
</mask>
<g mask="url(#mask10_288_231)">
<path d="M54.9696 16.969L54.483 17.388L54.9899 19.8241L56.0947 18.5841L54.9696 16.969Z" fill="white"/>
</g>
<mask id="mask11_288_231" style="mask-type:luminance" maskUnits="userSpaceOnUse" x="50" y="8" width="14" height="18">
<path d="M50.1312 8.1673V22.1453H50.1414C50.3373 23.7705 53.1721 25.0612 56.6421 25.0612C60.1122 25.0612 62.9503 23.7705 63.1429 22.1453H63.1564V8.1673H50.1312Z" fill="white"/>
</mask>
<g mask="url(#mask11_288_231)">
<path d="M58.3281 16.969L58.8113 17.388L58.3045 19.8241L57.203 18.5841L58.3281 16.969Z" fill="white"/>
</g>
<mask id="mask12_288_231" style="mask-type:luminance" maskUnits="userSpaceOnUse" x="50" y="8" width="14" height="18">
<path d="M50.1312 8.1673V22.1453H50.1414C50.3373 23.7705 53.1721 25.0612 56.6421 25.0612C60.1122 25.0612 62.9503 23.7705 63.1429 22.1453H63.1564V8.1673H50.1312Z" fill="white"/>
</mask>
<g mask="url(#mask12_288_231)">
<path d="M57.1832 18.5837H56.1088L56.2878 19.8238H57.0041L57.1832 18.5837Z" fill="#B03A40"/>
<path d="M56.646 19.8237H56.2878L56.1088 23.4999L56.646 24.8784L57.1832 23.4999L57.0041 19.8237H56.646Z" fill="#B03A40"/>
<path d="M56.6455 24.8787L58.6086 17.2122L59.4668 17.594L59.0208 19.8206L58.2572 20.0639L58.6153 20.7802L56.6455 24.8787Z" fill="#3999B3"/>
<path d="M56.6457 24.8787L54.6827 17.2122L53.8245 17.594L54.2705 19.8206L55.0341 20.0639L54.6759 20.7802L56.6457 24.8787Z" fill="#3999B3"/>
</g>
<path d="M27.5055 67.4912L9.35754 69.9095C7.53321 70.1535 5.85736 68.8701 5.61341 67.0457L0.564659 29.1483C0.320706 27.324 1.60411 25.6481 3.42844 25.4042L21.5764 22.9859C23.4007 22.7419 25.0766 24.0253 25.3205 25.8496L30.3693 63.7471C30.6132 65.5714 29.3298 67.2473 27.5055 67.4912Z" fill="#243042"/>
<path d="M24.7584 42.449L5.44372 45.0265C4.56337 45.1431 3.74666 44.528 3.62999 43.637L2.06021 31.8212C1.94354 30.9409 2.55872 30.1242 3.44968 30.0075L22.7643 27.4301C23.6447 27.3134 24.4614 27.9286 24.5781 28.8195L26.1478 40.6353C26.2645 41.5157 25.6387 42.3217 24.7584 42.449Z" fill="white"/>
<path d="M22.0465 31.6182L13.6254 32.7405L13.8201 34.2019L22.2413 33.0796L22.0465 31.6182Z" fill="#2E3345"/>
<path d="M22.3539 33.909L13.9327 35.0313L14.1275 36.4927L22.5486 35.3704L22.3539 33.909Z" fill="#2E3345"/>
<path d="M22.6832 36.3477L14.2621 37.47L14.4568 38.9314L22.878 37.8091L22.6832 36.3477Z" fill="#2E3345"/>
<path d="M19.0122 24.7164L6.32263 26.4076L6.54261 28.0582L19.2321 26.367L19.0122 24.7164Z" fill="#4F6182"/>
<path d="M10.6516 50.6479L6.94992 51.1464C6.6105 51.1888 6.30291 50.9555 6.26048 50.616L6.08017 49.2478C6.03774 48.9084 6.27109 48.6008 6.6105 48.5584L10.3122 48.0598C10.6516 48.0174 10.9592 48.2508 11.0016 48.5902L11.182 49.9584C11.2244 50.2979 10.991 50.6054 10.6516 50.6479Z" fill="#A1A1A1"/>
<path d="M17.7793 49.7039L14.0776 50.2024C13.7382 50.2448 13.4306 50.0115 13.3882 49.672L13.2079 48.3038C13.1654 47.9644 13.3988 47.6568 13.7382 47.6144L17.4399 47.1159C17.7793 47.0734 18.0869 47.3068 18.1293 47.6462L18.3096 49.0144C18.3521 49.3538 18.1187 49.6615 17.7793 49.7039Z" fill="#A1A1A1"/>
<path d="M25.2993 48.6963L21.5976 49.1948C21.2582 49.2373 20.9506 49.0039 20.9082 48.6645L20.7279 47.2962C20.6854 46.9568 20.9188 46.6492 21.2582 46.6068L24.9599 46.1083C25.2993 46.0659 25.6069 46.2992 25.6493 46.6386L25.8297 48.0069C25.8615 48.3463 25.6281 48.6539 25.2993 48.6963Z" fill="#A1A1A1"/>
<path d="M11.1926 54.6996L7.49093 55.1981C7.15152 55.2406 6.84393 55.0072 6.8015 54.6678L6.62119 53.2995C6.57876 52.9601 6.81211 52.6525 7.15152 52.6101L10.8532 52.1116C11.1926 52.0692 11.5002 52.3025 11.5427 52.6419L11.723 54.0102C11.7654 54.3496 11.5321 54.6572 11.1926 54.6996Z" fill="#A1A1A1"/>
<path d="M18.3202 53.7451L14.6185 54.2436C14.2791 54.286 13.9715 54.0527 13.9291 53.7133L13.7487 52.345C13.7063 52.0056 13.9397 51.698 14.2791 51.6556L17.9808 51.1571C18.3202 51.1146 18.6278 51.348 18.6702 51.6874L18.8505 53.0556C18.893 53.395 18.6596 53.7027 18.3202 53.7451Z" fill="#A1A1A1"/>
<path d="M25.8296 52.748L22.1279 53.2465C21.7885 53.2889 21.4809 53.0556 21.4385 52.7161L21.2581 51.3479C21.2157 51.0085 21.4491 50.7009 21.7885 50.6585L25.4902 50.1599C25.8296 50.1175 26.1372 50.3509 26.1796 50.6903L26.3599 52.0585C26.4024 52.3979 26.169 52.7055 25.8296 52.748Z" fill="#A1A1A1"/>
<path d="M11.7335 58.7514L8.03182 59.2499C7.69241 59.2923 7.38482 59.059 7.34239 58.7196L7.16208 57.3513C7.11965 57.0119 7.353 56.7043 7.69241 56.6619L11.3941 56.1634C11.7335 56.1209 12.0411 56.3543 12.0836 56.6937L12.2639 58.0619C12.3063 58.4013 12.0729 58.709 11.7335 58.7514Z" fill="#A1A1A1"/>
<path d="M18.8611 57.7967L15.1594 58.2952C14.82 58.3377 14.5124 58.1043 14.47 57.7649L14.2896 56.3967C14.2472 56.0573 14.4806 55.7496 14.82 55.7072L18.5217 55.2087C18.8611 55.1663 19.1687 55.3996 19.2111 55.739L19.3914 57.1073C19.4339 57.4467 19.2005 57.7543 18.8611 57.7967Z" fill="#A1A1A1"/>
<path d="M26.3706 56.7997L22.6689 57.2983C22.3295 57.3407 22.0219 57.1073 21.9795 56.7679L21.7992 55.3997C21.7567 55.0603 21.9901 54.7527 22.3295 54.7102L26.0312 54.2118C26.3706 54.1693 26.6782 54.4027 26.7206 54.7421L26.9009 56.1103C26.9434 56.4497 26.71 56.7573 26.3706 56.7997Z" fill="#A1A1A1"/>
<path d="M12.2743 62.7925L8.5726 63.291C8.23318 63.3334 7.92559 63.1 7.88316 62.7606L7.70285 61.3924C7.66042 61.053 7.89377 60.7454 8.23318 60.703L11.9349 60.2044C12.2743 60.162 12.5819 60.3954 12.6243 60.7348L12.8046 62.103C12.8471 62.4424 12.6137 62.75 12.2743 62.7925Z" fill="#A1A1A1"/>
<path d="M19.4021 61.8485L15.7004 62.347C15.361 62.3894 15.0534 62.1561 15.011 61.8167L14.8307 60.4484C14.7882 60.109 15.0216 59.8014 15.361 59.759L19.0627 59.2605C19.4021 59.218 19.7097 59.4514 19.7521 59.7908L19.9324 61.1591C19.9749 61.4985 19.7309 61.8061 19.4021 61.8485Z" fill="#A1A1A1"/>
<path d="M26.9115 60.8409L23.2098 61.3393C22.8704 61.3818 22.5628 61.1484 22.5204 60.809L22.3401 59.4408C22.2976 59.1014 22.531 58.7938 22.8704 58.7514L26.5721 58.2528C26.9115 58.2104 27.2191 58.4438 27.2615 58.7832L27.4418 60.1514C27.4843 60.4908 27.2509 60.7984 26.9115 60.8409Z" fill="#A1A1A1"/>
<mask id="mask13_288_231" style="mask-type:luminance" maskUnits="userSpaceOnUse" x="3" y="30" width="11" height="13">
<path d="M3.71692 32.11L5.1663 40.8183L5.17261 40.8173C5.46322 41.8095 7.36314 42.3196 9.52497 41.9598C11.6868 41.6 13.3212 40.5016 13.2726 39.4692L13.281 39.4678L11.8317 30.7594L3.71692 32.11Z" fill="white"/>
</mask>
<g mask="url(#mask13_288_231)">
<path d="M10.2661 34.2606C10.2044 33.8901 9.9578 33.8122 9.77256 33.843C9.58733 33.8738 9.3796 34.0296 9.44092 34.3979C9.50258 34.7684 9.77966 35.0295 9.9649 34.9987C10.1501 34.9678 10.3274 34.629 10.2661 34.2606Z" fill="#F2BD6D"/>
</g>
<mask id="mask14_288_231" style="mask-type:luminance" maskUnits="userSpaceOnUse" x="3" y="30" width="11" height="13">
<path d="M3.71692 32.11L5.1663 40.8183L5.17261 40.8173C5.46322 41.8095 7.36314 42.3196 9.52497 41.9598C11.6868 41.6 13.3212 40.5016 13.2726 39.4692L13.281 39.4678L11.8317 30.7594L3.71692 32.11Z" fill="white"/>
</mask>
<g mask="url(#mask14_288_231)">
<path d="M7.15938 34.7777C7.09772 34.4072 6.85111 34.3293 6.66587 34.3601C6.48063 34.3909 6.27292 34.5467 6.33423 34.915C6.39589 35.2855 6.67297 35.5466 6.85821 35.5157C7.04345 35.4849 7.22069 35.1461 7.15938 34.7777Z" fill="#F2BD6D"/>
</g>
<mask id="mask15_288_231" style="mask-type:luminance" maskUnits="userSpaceOnUse" x="3" y="30" width="11" height="13">
<path d="M3.71692 32.11L5.1663 40.8183L5.17261 40.8173C5.46322 41.8095 7.36314 42.3196 9.52497 41.9598C11.6868 41.6 13.3212 40.5016 13.2726 39.4692L13.281 39.4678L11.8317 30.7594L3.71692 32.11Z" fill="white"/>
</mask>
<g mask="url(#mask15_288_231)">
<path d="M9.77273 43.4352L8.6814 36.8782L6.13947 38.0086L7.11623 43.8774L9.77273 43.4352Z" fill="#2D788C"/>
</g>
<mask id="mask16_288_231" style="mask-type:luminance" maskUnits="userSpaceOnUse" x="3" y="30" width="11" height="13">
<path d="M3.71692 32.11L5.1663 40.8183L5.17261 40.8173C5.46322 41.8095 7.36314 42.3196 9.52497 41.9598C11.6868 41.6 13.3212 40.5016 13.2726 39.4692L13.281 39.4678L11.8317 30.7594L3.71692 32.11Z" fill="white"/>
</mask>
<g mask="url(#mask16_288_231)">
<path d="M12.4293 42.9929L11.4526 37.1242L8.68152 36.878L9.77285 43.435L12.4293 42.9929Z" fill="#2D788C"/>
</g>
<mask id="mask17_288_231" style="mask-type:luminance" maskUnits="userSpaceOnUse" x="3" y="30" width="11" height="13">
<path d="M3.71692 32.11L5.1663 40.8183L5.17261 40.8173C5.46322 41.8095 7.36314 42.3196 9.52497 41.9598C11.6868 41.6 13.3212 40.5016 13.2726 39.4692L13.281 39.4678L11.8317 30.7594L3.71692 32.11Z" fill="white"/>
</mask>
<g mask="url(#mask17_288_231)">
<path d="M9.58452 35.8449L7.49426 36.1927L7.88034 38.5124L9.9706 38.1646L9.58452 35.8449Z" fill="#F2BD6D"/>
</g>
<mask id="mask18_288_231" style="mask-type:luminance" maskUnits="userSpaceOnUse" x="3" y="30" width="11" height="13">
<path d="M3.71692 32.11L5.1663 40.8183L5.17261 40.8173C5.46322 41.8095 7.36314 42.3196 9.52497 41.9598C11.6868 41.6 13.3212 40.5016 13.2726 39.4692L13.281 39.4678L11.8317 30.7594L3.71692 32.11Z" fill="white"/>
</mask>
<g mask="url(#mask18_288_231)">
<path d="M9.92629 34.1789C9.68035 32.7012 8.69321 32.3852 7.95436 32.5082C7.21551 32.6312 6.38393 33.2498 6.62987 34.7275C6.87581 36.2052 7.98452 37.2516 8.72337 37.1287C9.46222 37.0057 10.1722 35.6566 9.92629 34.1789Z" fill="#FFD99E"/>
</g>
<mask id="mask19_288_231" style="mask-type:luminance" maskUnits="userSpaceOnUse" x="3" y="30" width="11" height="13">
<path d="M3.71692 32.11L5.1663 40.8183L5.17261 40.8173C5.46322 41.8095 7.36314 42.3196 9.52497 41.9598C11.6868 41.6 13.3212 40.5016 13.2726 39.4692L13.281 39.4678L11.8317 30.7594L3.71692 32.11Z" fill="white"/>
</mask>
<g mask="url(#mask19_288_231)">
<path d="M6.69518 35.0022C6.68492 33.8098 6.2109 34.1072 8.11774 33.4891C8.96748 33.2136 9.62394 32.8685 9.9537 34.4599L10.225 34.0621C10.2159 33.9685 10.2026 33.8755 10.1868 33.7808C9.90933 32.1136 8.94115 31.7296 7.85498 31.9104C6.7688 32.0912 5.97685 32.766 6.25468 34.4352C6.27044 34.5299 6.29007 34.6219 6.30969 34.7138L6.69518 35.0022Z" fill="#2D2D2E"/>
</g>
<mask id="mask20_288_231" style="mask-type:luminance" maskUnits="userSpaceOnUse" x="3" y="30" width="11" height="13">
<path d="M3.71692 32.11L5.1663 40.8183L5.17261 40.8173C5.46322 41.8095 7.36314 42.3196 9.52497 41.9598C11.6868 41.6 13.3212 40.5016 13.2726 39.4692L13.281 39.4678L11.8317 30.7594L3.71692 32.11Z" fill="white"/>
</mask>
<g mask="url(#mask20_288_231)">
<path d="M7.81152 38.0981L7.82659 38.1887L9.49602 41.8112L9.50865 41.8091L9.91474 37.8411L9.89967 37.7506L7.81152 38.0981Z" fill="#E3E1DE"/>
</g>
<mask id="mask21_288_231" style="mask-type:luminance" maskUnits="userSpaceOnUse" x="3" y="30" width="11" height="13">
<path d="M3.71692 32.11L5.1663 40.8183L5.17261 40.8173C5.46322 41.8095 7.36314 42.3196 9.52497 41.9598C11.6868 41.6 13.3212 40.5016 13.2726 39.4692L13.281 39.4678L11.8317 30.7594L3.71692 32.11Z" fill="white"/>
</mask>
<g mask="url(#mask21_288_231)">
<path d="M7.11618 43.8773L6.13942 38.0086L5.5163 38.281C5.16056 38.3403 4.96817 38.965 5.08694 39.6786L5.82196 44.0949L7.11653 43.8794L7.11618 43.8773Z" fill="#348BA2"/>
</g>
<mask id="mask22_288_231" style="mask-type:luminance" maskUnits="userSpaceOnUse" x="3" y="30" width="11" height="13">
<path d="M3.71692 32.11L5.1663 40.8183L5.17261 40.8173C5.46322 41.8095 7.36314 42.3196 9.52497 41.9598C11.6868 41.6 13.3212 40.5016 13.2726 39.4692L13.281 39.4678L11.8317 30.7594L3.71692 32.11Z" fill="white"/>
</mask>
<g mask="url(#mask22_288_231)">
<path d="M13.7237 42.7774L12.9887 38.3612C12.8699 37.6476 12.4855 37.1188 12.1298 37.178L11.452 37.1221L12.4288 42.9908L13.7234 42.7753L13.7237 42.7774Z" fill="#348BA2"/>
</g>
<mask id="mask23_288_231" style="mask-type:luminance" maskUnits="userSpaceOnUse" x="3" y="30" width="11" height="13">
<path d="M3.71692 32.11L5.1663 40.8183L5.17261 40.8173C5.46322 41.8095 7.36314 42.3196 9.52497 41.9598C11.6868 41.6 13.3212 40.5016 13.2726 39.4692L13.281 39.4678L11.8317 30.7594L3.71692 32.11Z" fill="white"/>
</mask>
<g mask="url(#mask23_288_231)">
<path d="M7.64357 37.0919L7.3839 37.4034L7.95224 38.8685L8.512 37.9814L7.64357 37.0919Z" fill="white"/>
</g>
<mask id="mask24_288_231" style="mask-type:luminance" maskUnits="userSpaceOnUse" x="3" y="30" width="11" height="13">
<path d="M3.71692 32.11L5.1663 40.8183L5.17261 40.8173C5.46322 41.8095 7.36314 42.3196 9.52497 41.9598C11.6868 41.6 13.3212 40.5016 13.2726 39.4692L13.281 39.4678L11.8317 30.7594L3.71692 32.11Z" fill="white"/>
</mask>
<g mask="url(#mask24_288_231)">
<path d="M9.73636 36.7437L10.0808 36.9547L10.0177 38.5249L9.20287 37.8666L9.73636 36.7437Z" fill="white"/>
</g>
<mask id="mask25_288_231" style="mask-type:luminance" maskUnits="userSpaceOnUse" x="3" y="30" width="11" height="13">
<path d="M3.71692 32.11L5.1663 40.8183L5.17261 40.8173C5.46322 41.8095 7.36314 42.3196 9.52497 41.9598C11.6868 41.6 13.3212 40.5016 13.2726 39.4692L13.281 39.4678L11.8317 30.7594L3.71692 32.11Z" fill="white"/>
</mask>
<g mask="url(#mask25_288_231)">
<path d="M9.19075 37.8681L8.52136 37.9795L8.7615 38.7335L9.20776 38.6592L9.19075 37.8681Z" fill="#B03A40"/>
<path d="M8.98496 38.6964L8.76183 38.7335L9.03144 41.0423L9.50908 41.8454L9.70083 40.9309L9.20809 38.6592L8.98496 38.6964Z" fill="#B03A40"/>
<path d="M9.50844 41.846L9.9365 36.8662L10.5108 37.0151L10.4638 38.4485L10.0133 38.6793L10.3107 39.0884L9.50844 41.846Z" fill="#3999B3"/>
<path d="M9.50841 41.8458L7.49048 37.2731L6.9954 37.6L7.50414 38.9409L8.00509 39.0133L7.85623 39.4967L9.50841 41.8458Z" fill="#3999B3"/>
</g>
<path d="M7.4889 23.8039L3.27307 24.3658L3.41038 25.3961L7.62621 24.8342L7.4889 23.8039Z" fill="#181A24"/>
<path d="M4.36183 15.9218H4.34062C3.64058 16.0173 3.15267 16.6537 3.24813 17.3537L4.17091 24.2586L6.7271 23.9192L5.80433 17.0143C5.69826 16.3143 5.05126 15.8264 4.36183 15.9218Z" fill="#787878"/>
</svg>
