<svg width="95" height="89" viewBox="0 0 95 89" fill="none" xmlns="http://www.w3.org/2000/svg">
<path d="M92.1794 1.16644H0.311035V68.5961H92.1794V1.16644Z" fill="#78C15F"/>
<path d="M0.359016 77.139H49.1271V75.6264H0.359016V77.139Z" fill="#F77B55"/>
<path d="M0.359016 74.1401H49.1271V72.6275H0.359016V74.1401Z" fill="#F77B55"/>
<path d="M49.1352 74.1357H0.367188V75.6483H49.1352V74.1357Z" fill="#FF916E"/>
<path d="M49.1375 72.6234V77.143L59.8351 74.8103L49.1375 72.6234Z" fill="#FFDB7A"/>
<path d="M59.8314 74.8113L55.567 75.7589V73.8818L59.8314 74.8113Z" fill="#353F49"/>
<path d="M48.8974 86.8568H11.0638V88.3694H48.8974V86.8568Z" fill="#F9BB4E"/>
<path d="M48.8974 83.8491H11.0638V85.3617H48.8974V83.8491Z" fill="#F9BB4E"/>
<path d="M48.8974 85.3615H11.0638V86.8741H48.8974V85.3615Z" fill="#FECA5C"/>
<path d="M11.0646 83.8488V88.3684L0.366943 86.0174L11.0646 83.8488Z" fill="#FFDB7A"/>
<path d="M0.366943 86.018L4.63141 86.9839V85.1068L0.366943 86.018Z" fill="#353F49"/>
<path d="M92.1794 0.254211H0.311035V67.6839H92.1794V0.254211Z" fill="#01CA5C"/>
<path d="M88.3379 3.93585H3.66809V66.0805H88.3379V3.93585Z" fill="#85DE77"/>
<path d="M42.4476 1.27429H2.6095V64.2208H42.4476V1.27429Z" fill="#F2F2F2"/>
<path d="M89.7919 1.27515H49.9537V64.2216H89.7919V1.27515Z" fill="#F2F2F2"/>
<path d="M42.153 64.2208L46.053 65.4418V3.07849L42.4445 1.27429C42.4445 1.27429 42.153 64.7129 42.153 64.2208Z" fill="#CDCCCA"/>
<path d="M49.9546 64.2217L46.0546 65.4427V3.07935L49.9546 1.27515C49.9546 1.27515 49.9546 64.7137 49.9546 64.2217Z" fill="#F2F2F2"/>
<path d="M49.9188 64.2209L46.0189 65.4419V3.07862L49.6272 1.27441C49.6272 1.27441 49.9188 64.713 49.9188 64.2209Z" fill="white"/>
<path d="M36.9632 6.7619H7.62219V7.54554H36.9632V6.7619Z" fill="#CDCCCA"/>
<path d="M36.9631 10.9529H7.62207V11.7366H36.9631V10.9529Z" fill="#CDCCCA"/>
<path d="M36.9631 15.418H7.62207V16.2016H36.9631V15.418Z" fill="#CDCCCA"/>
<path d="M36.9631 19.8838H7.62207V20.6674H36.9631V19.8838Z" fill="#CDCCCA"/>
<path d="M36.9631 24.3496H7.62207V25.1333H36.9631V24.3496Z" fill="#CDCCCA"/>
<path d="M36.9631 28.8132H7.62207V29.5968H36.9631V28.8132Z" fill="#CDCCCA"/>
<path d="M36.9631 33.2789H7.62207V34.0626H36.9631V33.2789Z" fill="#CDCCCA"/>
<path d="M36.9631 37.7432H7.62207V38.5269H36.9631V37.7432Z" fill="#CDCCCA"/>
<path d="M36.9631 42.209H7.62207V42.9926H36.9631V42.209Z" fill="#CDCCCA"/>
<path d="M36.9631 46.674H7.62207V47.4577H36.9631V46.674Z" fill="#CDCCCA"/>
<path d="M36.9631 51.119H7.62207V51.9027H36.9631V51.119Z" fill="#CDCCCA"/>
<path d="M36.9631 55.5848H7.62207V56.3684H36.9631V55.5848Z" fill="#CDCCCA"/>
<path d="M84.7442 6.76117H55.4032V7.54481H84.7442V6.76117Z" fill="#CDCCCA"/>
<path d="M84.7444 10.9521H55.4034V11.7358H84.7444V10.9521Z" fill="#CDCCCA"/>
<path d="M84.7444 15.4179H55.4034V16.2016H84.7444V15.4179Z" fill="#CDCCCA"/>
<path d="M84.7444 19.8837H55.4034V20.6673H84.7444V19.8837Z" fill="#CDCCCA"/>
<path d="M84.7444 24.3488H55.4034V25.1325H84.7444V24.3488Z" fill="#CDCCCA"/>
<path d="M84.7444 28.8123H55.4034V29.596H84.7444V28.8123Z" fill="#CDCCCA"/>
<path d="M84.7444 33.2781H55.4034V34.0617H84.7444V33.2781Z" fill="#CDCCCA"/>
<path d="M84.7444 37.7424H55.4034V38.526H84.7444V37.7424Z" fill="#CDCCCA"/>
<path d="M84.7444 42.2081H55.4034V42.9918H84.7444V42.2081Z" fill="#CDCCCA"/>
<path d="M84.7444 46.674H55.4034V47.4576H84.7444V46.674Z" fill="#CDCCCA"/>
<path d="M84.7444 51.1197H55.4034V51.9033H84.7444V51.1197Z" fill="#CDCCCA"/>
<path d="M84.7444 55.5847H55.4034V56.3684H84.7444V55.5847Z" fill="#CDCCCA"/>
<path d="M94.311 44.6306H68.3232V88.0772H94.311V44.6306Z" fill="#2C353D"/>
<path d="M94.311 44.6306H68.3232V85.3253H94.311V44.6306Z" fill="#353F49"/>
<path d="M93.4558 84.9977H69.1811V85.2528H93.4558V84.9977Z" fill="#CDCCCA"/>
<path d="M91.7604 48.24H70.9847V48.5316H91.7604V48.24Z" fill="white"/>
<path d="M90.9877 49.0085H70.6735V81.5112H90.9877V49.0085Z" fill="#01CA5C"/>
</svg>
