<svg width="107" height="115" viewBox="0 0 107 115" fill="none" xmlns="http://www.w3.org/2000/svg">
<path d="M82.9521 93.2375L82.7074 21.0609C82.6978 19.422 81.3731 18.0981 79.7201 18.1032L27.769 18.2857C26.1302 18.2953 24.8062 19.62 24.8113 21.273L25.0606 93.4354C25.0702 95.0742 26.3948 96.3982 28.0478 96.3931L79.9989 96.2105C81.6377 96.2009 82.9617 94.8763 82.9521 93.2375Z" fill="#E6E9EE"/>
<g opacity="0.1">
<path d="M82.9521 93.2375L82.9443 89.7765C54.4025 89.8791 31.1707 66.8185 31.0868 38.267L31.0138 18.2717L27.769 18.2858C26.1302 18.2953 24.8062 19.62 24.8113 21.273L25.0605 93.4354C25.0701 95.0743 26.3948 96.3982 28.0478 96.3931L79.9989 96.2106C81.6377 96.201 82.9617 94.8763 82.9521 93.2375Z" fill="black"/>
</g>
<path d="M41.263 12.2393C44.7883 13.3581 48.1167 12.7822 48.6972 10.9531C49.2777 9.12402 46.8904 6.73428 43.3651 5.61551C39.8397 4.49673 36.5113 5.07257 35.9308 6.90168C35.3504 8.7308 37.7376 11.1205 41.263 12.2393Z" fill="#FF4823"/>
<g opacity="0.1">
<path d="M43.836 10.906C40.3118 9.78756 37.9244 7.39414 38.5038 5.56835C38.5532 5.41267 38.6451 5.27045 38.7369 5.12824C37.2983 5.34157 36.2362 5.93925 35.9308 6.90168C35.3514 8.72747 37.7387 11.1209 41.2629 12.2393C44.4758 13.2589 47.5036 12.8488 48.4499 11.3888C47.1283 11.5769 45.5061 11.436 43.836 10.906Z" fill="black"/>
</g>
<path d="M44.4535 17.8943L44.3625 20.0465C40.6402 21.4669 36.4366 20.1329 34.2287 16.8305L35.3953 15.0197C32.851 15.0846 30.8912 15.9583 30.3971 17.5151C29.6245 19.9495 32.7322 23.1168 37.3462 24.5811C41.9603 26.0453 46.3256 25.2497 47.0981 22.8153C47.5922 21.2584 46.4949 19.4146 44.4535 17.8943Z" fill="#FF4823"/>
<path d="M41.2629 12.2393C40.0741 11.862 39.0098 11.3373 38.1417 10.7347L34.2242 16.8447C36.4463 20.1515 40.6499 21.4855 44.358 20.0607L44.6806 12.8098C43.6239 12.8016 42.4518 12.6166 41.2629 12.2393Z" fill="#AAB2BD"/>
<g opacity="0.1">
<path d="M44.3733 19.8162C44.3077 19.8266 44.2466 19.8228 44.1855 19.819C39.947 19.9694 37.379 15.1507 39.6616 11.5909C39.1083 11.3218 38.5922 11.0334 38.1462 10.7205L34.2287 16.8305C36.4508 20.1374 40.6544 21.4714 44.3626 20.0465L44.3733 19.8162Z" fill="black"/>
</g>
<path d="M77.2059 34.2239L77.181 28.6077C77.1785 27.7812 76.5162 27.1192 75.6897 27.1217L62.8556 27.1616C62.0291 27.1642 61.3671 27.8265 61.3697 28.653L61.3945 34.2693C61.3971 35.0958 62.0594 35.7577 62.8859 35.7552L75.7199 35.7153C76.5323 35.7083 77.1987 35.0318 77.2059 34.2239Z" fill="#009AFF"/>
<g opacity="0.1">
<path d="M77.2044 33.1485L65.8027 33.1912C64.9762 33.1937 64.3139 32.5317 64.3113 31.7052L64.2925 27.1502L62.8556 27.1616C62.0291 27.1642 61.3671 27.8265 61.3697 28.653L61.3945 34.2692C61.3971 35.0957 62.0594 35.7577 62.8859 35.7552L75.7199 35.7153C76.5464 35.7127 77.2084 35.0504 77.2059 34.2239L77.2044 33.1485Z" fill="black"/>
</g>
<path d="M69.1717 86.9324C72.4781 87.9817 76.0092 86.1519 77.0585 82.8455C78.1078 79.539 76.2781 76.0079 72.9716 74.9586C69.6651 73.9093 66.134 75.7391 65.0847 79.0456C64.0354 82.352 65.8652 85.8831 69.1717 86.9324Z" fill="#FEC200"/>
<g opacity="0.1">
<path d="M73.8257 84.3434C70.3506 84.3466 67.53 81.5509 67.5126 78.0713C67.5177 77.1226 67.7351 76.2412 68.0992 75.4376C66.1235 76.5087 64.7679 78.5712 64.7839 80.9754C64.7871 84.4505 67.6218 87.2507 71.0969 87.2475C73.6233 87.2391 75.7852 85.7286 76.778 83.5822C75.8972 84.0504 74.9011 84.3419 73.8257 84.3434Z" fill="black"/>
</g>
<g opacity="0.5">
<path d="M82.7074 21.0609C82.6978 19.4221 81.3731 18.0981 79.7201 18.1032L61.8287 18.1739C61.8242 18.1881 61.8198 18.2022 61.8294 18.2209C61.8416 20.6862 63.8472 22.6625 66.2939 22.66L78.3954 22.6213L78.5055 53.6426C78.5154 55.6242 79.8217 57.3007 81.6192 57.8711C82.0155 57.9969 82.4156 58.0615 82.8478 58.0741L82.7074 21.0609Z" fill="white"/>
</g>
<path d="M40.9261 13.3008C36.68 11.9533 34.0788 9.05582 34.8693 6.56481C35.6598 4.07381 39.4559 3.20651 43.7019 4.554C47.9479 5.90149 50.5492 8.79901 49.7587 11.29C48.9682 13.781 45.158 14.6438 40.9261 13.3008ZM43.0282 6.67702C39.787 5.64843 37.2843 6.31859 36.9923 7.23856C36.7003 8.15853 38.3445 10.1447 41.5998 11.1778C44.8551 12.2109 47.3437 11.5362 47.6357 10.6163C47.9276 9.69629 46.2693 7.7056 43.0282 6.67702Z" fill="#211E27"/>
<path d="M34.1841 34.5451C33.6038 34.361 33.2753 33.727 33.4595 33.1468L36.2847 24.2442C36.4689 23.664 37.1028 23.3355 37.6831 23.5196C38.2634 23.7038 38.5919 24.3377 38.4077 24.918L35.5825 33.8205C35.3983 34.4008 34.7644 34.7293 34.1841 34.5451Z" fill="#211E27"/>
<path d="M37.0094 25.6426C31.7302 23.9672 28.3609 20.2496 29.3356 17.1783C29.9644 15.1968 32.2198 13.9808 35.3604 13.9025C35.9708 13.8937 36.4896 14.3699 36.4939 14.9945C36.5027 15.6048 36.0124 16.1191 35.402 16.1279C33.313 16.1816 31.7634 16.8427 31.4445 17.8476C30.9414 19.4327 33.3805 22.1541 37.669 23.5151C41.9575 24.8761 45.5194 24.0591 46.0225 22.4739C46.3369 21.4832 45.4566 20.0354 43.7808 18.787C43.2872 18.4278 43.1831 17.7249 43.5423 17.2313C43.9015 16.7377 44.6044 16.6336 45.098 16.9928C47.6329 18.8722 48.7602 21.1617 48.1314 23.1432C47.185 26.2235 42.2886 27.318 37.0094 25.6426Z" fill="#211E27"/>
<path d="M38.3883 21.2975C36.3644 20.6552 34.5515 19.3477 33.294 17.4686C33.0538 17.0964 33.047 16.6269 33.2763 16.2479L37.1939 10.1379C37.5292 9.62117 38.2128 9.4798 38.734 9.801C39.2508 10.1364 39.4063 10.8244 39.0709 11.3412L35.5665 16.7877C37.4308 19.0619 40.4455 20.0186 43.2801 19.2357L43.5621 12.7509C43.586 12.1353 44.1099 11.6628 44.7254 11.6868C45.341 11.7108 45.8135 12.2346 45.7895 12.8502L45.4669 20.101C45.4499 20.5474 45.1691 20.9412 44.7486 21.0882C42.6376 21.8983 40.3981 21.9353 38.3883 21.2975Z" fill="#211E27"/>
<path d="M30.2621 88.434C29.8092 88.2903 29.4886 87.8769 29.4908 87.3791C29.4819 86.7687 29.9865 86.259 30.5923 86.2643L47.5916 86.2065C48.202 86.1976 48.7118 86.7022 48.7065 87.308C48.7153 87.9184 48.2108 88.4282 47.6049 88.4229L30.6056 88.4807C30.4789 88.4872 30.3612 88.4654 30.2621 88.434Z" fill="#211E27"/>
<path d="M30.2273 79.8546C29.7744 79.7109 29.4538 79.2975 29.456 78.7997C29.4471 78.1893 29.9517 77.6795 30.5576 77.6849L47.5569 77.6271C48.1672 77.6182 48.677 78.1227 48.6717 78.7286C48.6805 79.339 48.176 79.8488 47.5701 79.8435L30.5708 79.9013C30.4441 79.9078 30.3405 79.8905 30.2273 79.8546Z" fill="#211E27"/>
<path d="M30.1925 71.2752C29.7396 71.1315 29.419 70.7181 29.4212 70.2203C29.4124 69.6099 29.9169 69.1002 30.5228 69.1055L77.313 68.9365C77.9233 68.9277 78.4331 69.4322 78.4278 70.038C78.4366 70.6484 77.9321 71.1582 77.3262 71.1529L30.536 71.3219C30.4138 71.3143 30.3057 71.3111 30.1925 71.2752Z" fill="#211E27"/>
<path d="M30.1622 62.6816C29.7093 62.5379 29.3887 62.1246 29.3909 61.6267C29.3821 61.0164 29.8866 60.5066 30.4925 60.5119L77.2827 60.3429C77.8931 60.3341 78.4029 60.8386 78.3975 61.4445C78.4063 62.0549 77.9018 62.5646 77.2959 62.5593L30.5057 62.7283C30.3932 62.7393 30.2755 62.7176 30.1622 62.6816Z" fill="#211E27"/>
<path d="M30.1417 54.1067C29.6888 53.963 29.3682 53.5497 29.3704 53.0519C29.3615 52.4415 29.866 51.9317 30.4719 51.937L77.2621 51.768C77.8725 51.7592 78.3823 52.2637 78.377 52.8696C78.3858 53.48 77.8813 53.9897 77.2754 53.9844L30.4852 54.1534C30.363 54.1458 30.2408 54.1382 30.1417 54.1067Z" fill="#211E27"/>
<path d="M30.1114 45.5132C29.6585 45.3694 29.3379 44.9561 29.3401 44.4583C29.3313 43.8479 29.8358 43.3381 30.4417 43.3435L77.2319 43.1744C77.8422 43.1656 78.352 43.6701 78.3467 44.276C78.3555 44.8864 77.851 45.3962 77.2451 45.3909L30.4549 45.5599C30.3282 45.5664 30.2105 45.5446 30.1114 45.5132Z" fill="#211E27"/>
<path d="M61.0696 36.8146C60.6167 36.6709 60.2961 36.2576 60.2983 35.7597L60.2635 27.1803C60.2639 26.8845 60.3866 26.5962 60.5903 26.3961C60.794 26.1959 61.0834 26.0696 61.3792 26.07L77.1668 26.0015C77.7772 25.9927 78.2869 26.4972 78.2816 27.1031L78.3164 35.6825C78.316 35.9784 78.1933 36.2666 77.9896 36.4668C77.7858 36.667 77.4965 36.7933 77.2006 36.7928L61.4034 36.8427C61.2864 36.8678 61.1828 36.8506 61.0696 36.8146ZM62.4865 28.2753L62.5081 34.6383L76.0792 34.5831L76.0577 28.2201L62.4865 28.2753Z" fill="#211E27"/>
<path d="M68.8444 88.0126C65.858 87.0648 63.6903 84.2738 63.6756 80.982C63.6636 76.8965 66.9638 73.5662 71.0493 73.5541C75.1348 73.542 78.4651 76.8422 78.4772 80.9277C78.4893 85.0132 75.189 88.3435 71.1035 88.3556C70.3098 88.353 69.5521 88.2372 68.8444 88.0126ZM72.6347 76.0201C72.1393 75.8629 71.6073 75.772 71.058 75.7846C68.203 75.7977 65.8931 78.1181 65.9062 80.9732C65.9193 83.8283 68.2397 86.1382 71.0948 86.1251C73.9499 86.112 76.2597 83.7916 76.2466 80.9365C76.2462 78.6307 74.7152 76.6804 72.6347 76.0201Z" fill="#211E27"/>
<path d="M24.7337 97.4599C24.2808 97.3162 23.9602 96.9029 23.9624 96.4051L23.6977 18.3022C23.6889 17.6918 24.1934 17.182 24.7993 17.1873L30.2747 17.1646C30.8851 17.1557 31.3949 17.6603 31.3895 18.2661C31.3984 18.8765 30.8938 19.3863 30.288 19.381L25.9208 19.3971L26.1908 95.2739L81.8517 95.0847L81.5817 19.2079L44.8547 19.3301C44.2444 19.3389 43.7346 18.8344 43.7399 18.2285C43.7311 17.6182 44.2356 17.1084 44.8415 17.1137L82.6767 16.9849C82.9725 16.9853 83.2511 17.0893 83.461 17.3117C83.6753 17.5199 83.7874 17.8048 83.787 18.1006L84.0516 96.2035C84.0512 96.4994 83.9286 96.7876 83.7248 96.9878C83.5211 97.188 83.2318 97.3143 82.9359 97.3138L25.0772 97.5066C24.9646 97.5177 24.8469 97.4959 24.7337 97.4599Z" fill="#211E27"/>
</svg>
