<svg width="111" height="63" viewBox="0 0 111 63" fill="none" xmlns="http://www.w3.org/2000/svg">
<path d="M100.758 63H17.6726C17.0542 63 16.5518 62.4975 16.5518 61.8791V1.12089C16.5518 0.502487 17.0542 0 17.6726 0H100.758C106.22 0 110.652 4.43193 110.652 9.8945V53.1184C110.639 58.581 106.22 63 100.758 63Z" fill="#2B2B2B"/>
<path d="M101.377 9.37885H34.8855V55.5015H101.377V9.37885Z" fill="white"/>
<path d="M94.394 50.6963H41.8683V14.1718H94.394V50.6963ZM42.1904 50.3742H94.0719V14.4938H42.1904V50.3742Z" fill="#BABABA"/>
<path d="M25.3901 36.937C22.2852 36.937 19.76 34.4118 19.76 31.3069C19.76 28.202 22.2852 25.6769 25.3901 25.6769C28.495 25.6769 31.0201 28.202 31.0201 31.3069C31.0201 34.4118 28.495 36.937 25.3901 36.937ZM25.3901 26.9652C22.9937 26.9652 21.0484 28.9106 21.0484 31.3069C21.0484 33.7032 22.9937 35.6486 25.3901 35.6486C27.7864 35.6486 29.7318 33.7032 29.7318 31.3069C29.7318 28.9106 27.7864 26.9652 25.3901 26.9652Z" fill="#C7C7C7"/>
<path d="M25.3895 49.8204C27.268 49.8204 28.7907 48.2976 28.7907 46.4191C28.7907 44.5407 27.268 43.0179 25.3895 43.0179C23.5111 43.0179 21.9883 44.5407 21.9883 46.4191C21.9883 48.2976 23.5111 49.8204 25.3895 49.8204Z" fill="#0F0F0F"/>
<path d="M25.3895 19.2996C27.268 19.2996 28.7907 17.7768 28.7907 15.8984C28.7907 14.02 27.268 12.4972 25.3895 12.4972C23.5111 12.4972 21.9883 14.02 21.9883 15.8984C21.9883 17.7768 23.5111 19.2996 25.3895 19.2996Z" fill="#0F0F0F"/>
<path d="M4.37742 60.7456C4.06822 60.7456 3.81055 60.5008 3.81055 60.1916V57.9499H4.91852V60.1916C4.93141 60.5008 4.68662 60.7456 4.37742 60.7456Z" fill="#C2C2C2"/>
<path d="M4.41641 58.6715H4.37776C3.21825 58.6715 2.29065 57.731 2.29065 56.5844V8.01387C2.29065 6.85436 3.23113 5.92676 4.37776 5.92676H4.41641C5.57592 5.92676 6.50354 6.86724 6.50354 8.01387V56.5844C6.50354 57.7439 5.57592 58.6715 4.41641 58.6715Z" fill="#2B2B2B"/>
<path d="M4.42875 48.4036C4.11955 48.4036 3.87476 47.914 3.87476 47.3085V42.6318C3.87476 42.0263 4.11955 41.5367 4.42875 41.5367H4.44163C4.73795 41.5367 4.99561 42.0263 4.99561 42.6318V47.3085C4.96984 47.914 4.72507 48.4036 4.42875 48.4036Z" fill="#C2C2C2"/>
<path d="M2.27732 9.70175V9.30237H0.808594V12.1238L1.41412 29.8643H1.7491V12.1238H2.27732V10.4104H6.50309V9.70175H2.27732Z" fill="#C2C2C2"/>
<path d="M75.6998 32.2086L60.2397 41.1345L60.2397 23.2827L75.6998 32.2086Z" fill="#FF0000"/>
</svg>
