<svg width="531" height="304" viewBox="0 0 531 304" fill="none" xmlns="http://www.w3.org/2000/svg">
<g opacity="0.39" clip-path="url(#clip0_240_3428)">
<path d="M461.473 122.706C466.447 125.584 472.102 127.084 477.852 127.05C493.876 127.05 506.872 115.918 506.872 102.186C506.872 88.4536 493.879 77.3214 477.852 77.3214C461.825 77.3214 448.832 88.4536 448.832 102.186C448.84 106.066 449.878 109.876 451.841 113.226L442.067 127.05L461.473 122.706Z" fill="white" stroke="#444AB4" stroke-miterlimit="10"/>
<path d="M489.87 105.916C491.689 105.916 493.163 104.445 493.163 102.63C493.163 100.815 491.689 99.3442 489.87 99.3442C488.051 99.3442 486.576 100.815 486.576 102.63C486.576 104.445 488.051 105.916 489.87 105.916Z" fill="#F14379"/>
<path d="M477.407 105.56C479.226 105.56 480.701 104.089 480.701 102.275C480.701 100.46 479.226 98.989 477.407 98.989C475.588 98.989 474.113 100.46 474.113 102.275C474.113 104.089 475.588 105.56 477.407 105.56Z" fill="#F14379"/>
<path d="M465.657 105.56C467.476 105.56 468.95 104.089 468.95 102.275C468.95 100.46 467.476 98.989 465.657 98.989C463.838 98.989 462.363 100.46 462.363 102.275C462.363 104.089 463.838 105.56 465.657 105.56Z" fill="#F14379"/>
<path d="M279.907 70.4624H283.941C284.569 70.4624 285.171 70.2135 285.615 69.7705C286.06 69.3275 286.309 68.7267 286.309 68.1002V45.7222C286.309 45.0958 286.06 44.4949 285.615 44.052C285.171 43.609 284.569 43.3601 283.941 43.3601H224.761C224.133 43.3601 223.531 43.609 223.087 44.052C222.643 44.4949 222.394 45.0958 222.394 45.7222V68.1002C222.394 68.7267 222.643 69.3275 223.087 69.7705C223.531 70.2135 224.133 70.4624 224.761 70.4624H271.194L280.096 79.0761L279.907 70.4624Z" fill="#FDC93B"/>
<path d="M275.449 59.895C277.022 59.895 278.297 58.6227 278.297 57.0533C278.297 55.4839 277.022 54.2117 275.449 54.2117C273.876 54.2117 272.6 55.4839 272.6 57.0533C272.6 58.6227 273.876 59.895 275.449 59.895Z" fill="white"/>
<path d="M264.41 59.895C265.984 59.895 267.259 58.6227 267.259 57.0533C267.259 55.4839 265.984 54.2117 264.41 54.2117C262.837 54.2117 261.562 55.4839 261.562 57.0533C261.562 58.6227 262.837 59.895 264.41 59.895Z" fill="white"/>
<path d="M253.372 59.895C254.945 59.895 256.221 58.6227 256.221 57.0533C256.221 55.4839 254.945 54.2117 253.372 54.2117C251.799 54.2117 250.523 55.4839 250.523 57.0533C250.523 58.6227 251.799 59.895 253.372 59.895Z" fill="white"/>
<path d="M242.334 59.895C243.907 59.895 245.182 58.6227 245.182 57.0533C245.182 55.4839 243.907 54.2117 242.334 54.2117C240.761 54.2117 239.485 55.4839 239.485 57.0533C239.485 58.6227 240.761 59.895 242.334 59.895Z" fill="white"/>
<path d="M231.295 59.895C232.869 59.895 234.144 58.6227 234.144 57.0533C234.144 55.4839 232.869 54.2117 231.295 54.2117C229.722 54.2117 228.447 55.4839 228.447 57.0533C228.447 58.6227 229.722 59.895 231.295 59.895Z" fill="white"/>
<path d="M71.482 168.432H77.7596C78.49 168.432 79.2132 168.288 79.888 168.009C80.5628 167.731 81.176 167.322 81.6925 166.807C82.2089 166.292 82.6186 165.68 82.8981 165.007C83.1776 164.334 83.3215 163.612 83.3215 162.883V143.788C83.3215 143.059 83.1776 142.337 82.8981 141.664C82.6186 140.991 82.2089 140.38 81.6925 139.864C81.176 139.349 80.5628 138.94 79.888 138.662C79.2132 138.383 78.49 138.239 77.7596 138.239H5.56189C4.08678 138.239 2.6721 138.824 1.62904 139.864C0.585985 140.905 0 142.316 0 143.788V162.883C0 163.612 0.14386 164.334 0.423371 165.007C0.702882 165.68 1.11257 166.292 1.62904 166.807C2.14551 167.322 2.75865 167.731 3.43345 168.009C4.10824 168.288 4.83149 168.432 5.56189 168.432H54.2302L72.6392 180.864L71.482 168.432Z" fill="#FFA8DC"/>
<path d="M52.9483 144.633H5.34113V146.764H52.9483V144.633Z" fill="white"/>
<path d="M64.8056 149.961H5.38031V152.092H64.8056V149.961Z" fill="white"/>
<path d="M72.1728 155.289H5.41589V157.42H72.1728V155.289Z" fill="white"/>
<path d="M77.7632 160.617H5.45508V162.749H77.7632V160.617Z" fill="white"/>
<path d="M423.871 64.4699C441.374 64.4699 455.562 50.3161 455.562 32.8566C455.562 15.397 441.374 1.24316 423.871 1.24316C406.369 1.24316 392.181 15.397 392.181 32.8566C392.181 50.3161 406.369 64.4699 423.871 64.4699Z" fill="white" stroke="#6267B2" stroke-width="7" stroke-miterlimit="10"/>
<path d="M423.693 61.0955C439.426 61.0955 452.179 48.373 452.179 32.679C452.179 16.985 439.426 4.26245 423.693 4.26245C407.961 4.26245 395.207 16.985 395.207 32.679C395.207 48.373 407.961 61.0955 423.693 61.0955Z" fill="white" stroke="#6267B2" stroke-miterlimit="10"/>
<path d="M423.693 4.26245V9.95286" stroke="#6267B2" stroke-width="3" stroke-miterlimit="10"/>
<path d="M423.693 55.4121V61.1025" stroke="#6267B2" stroke-width="3" stroke-miterlimit="10"/>
<path d="M400.908 32.9702L395.207 32.7465" stroke="#6267B2" stroke-width="3" stroke-miterlimit="10"/>
<path d="M452.183 32.615L446.482 32.3912" stroke="#6267B2" stroke-width="3" stroke-miterlimit="10"/>
<path d="M443.705 12.0983L439.699 16.1476" stroke="#6267B2" stroke-miterlimit="10"/>
<path d="M407.688 48.5034L403.682 52.5528" stroke="#6267B2" stroke-miterlimit="10"/>
<path d="M407.271 16.5668L403.372 12.4109" stroke="#6267B2" stroke-miterlimit="10"/>
<path d="M444.018 52.2401L440.115 48.0878" stroke="#6267B2" stroke-miterlimit="10"/>
<path d="M423.551 18.0018V32.5653L434.589 44.2871" stroke="#6267B2" stroke-width="2" stroke-miterlimit="10"/>
<path d="M250.954 246.311L223.259 265.403C217.052 268.902 206.879 271.087 207.072 283.377C210.882 288.271 211.519 291.927 217.558 290.463C218.982 290.108 225.897 288.332 226.709 288.009C241.664 282.158 279.497 267.051 283.158 258.882C285.611 253.426 281.473 247.469 274.69 244.237C267.02 240.589 257.944 241.494 250.954 246.311Z" fill="#FF9A63"/>
<path d="M203.675 294.591C204.134 294.235 204.266 293.596 204.355 293.021C204.789 290.159 205.038 287.272 205.099 284.378C206.637 289.401 212.822 292.427 217.743 290.57C222.664 288.712 225.285 282.35 223.084 277.576C220.998 273.015 215.849 270.827 211.145 269.069" fill="#FF9A63"/>
<path d="M193.872 295.496C195.236 295.781 196.065 294.076 196.365 292.715L198.857 281.92L199.27 289.16C199.402 291.454 199.982 294.328 202.247 294.822" fill="#FF9A63"/>
<path d="M185.305 296.246C187.05 296.768 188.299 294.601 188.823 292.861L191.671 283.38C191.484 286.625 191.685 289.88 192.27 293.077C192.455 294.09 192.861 295.283 193.868 295.496" fill="#FF9A63"/>
<path d="M178.507 294.619C180.434 294.704 181.52 292.488 182.097 290.648C182.741 288.584 184.457 286.517 185.102 284.453C184.465 287.295 183.222 290.222 183.524 293.106C183.656 294.381 184.076 295.88 185.305 296.246" fill="#FF9A63"/>
<path d="M219.559 278.006C216.418 273.547 212.599 269.604 208.24 266.32C206.384 264.924 203.839 263.627 201.88 264.87C201.407 265.169 200.99 265.613 200.434 265.702C199.744 265.812 199.113 265.346 198.472 265.069C197.648 264.746 196.737 264.721 195.896 264.998C195.055 265.275 194.338 265.837 193.868 266.586C191.315 266.032 187.783 266.014 187.053 268.518C185.746 267.623 183.87 268.032 182.663 269.058C181.456 270.085 181.481 271.584 180.882 273.051C179.102 277.48 180.17 274.283 177.717 285.71C177.468 286.868 176.713 291.294 177.069 292.42C177.425 293.546 177.318 294.552 178.493 294.619" fill="#FF9A63"/>
<path d="M305.006 229.204L282.666 260.906C282.666 260.906 275.937 268.188 264.037 268.518C256.431 268.728 253.03 263.901 252.393 258.061C251.859 253.191 252.336 248.321 255.359 244.46L262.886 236.223L278.297 210.396L305.006 229.204Z" fill="#FF9A63"/>
<path d="M295.969 167.157C293.409 167.597 290.963 168.548 288.779 169.951C286.594 171.355 284.715 173.183 283.254 175.326C282.086 177.161 281.093 179.1 280.288 181.12C279.188 183.692 278.151 186.288 277.218 188.934C272.661 201.828 270.66 215.76 263.837 227.616C276.181 230.046 288.419 232.949 300.552 236.326C301.284 230.84 302.597 225.446 304.469 220.235C305.729 216.719 307.25 213.27 307.962 209.604C308.507 206.808 308.567 203.949 308.745 201.107C309.073 195.825 309.814 190.533 309.361 185.258C308.909 179.983 307.139 174.602 303.24 170.996C300.637 168.607 297.292 167.181 293.762 166.954" fill="#A1C2FD"/>
<path d="M394.232 297.393L392.515 225.471L407.966 187.794C407.966 187.794 410.255 176.95 402.817 173.526L389.083 172.954C389.083 172.954 382.787 166.105 380.498 168.958C380.498 168.958 378.212 162.681 374.776 164.961L368.484 166.677L327.753 166.805C326.553 164.944 322.768 162.873 320.631 163.423C318.495 163.974 316.572 165.199 314.464 165.91C308.952 167.732 302.838 165.651 297.155 166.844C296.35 167.011 295.514 167.274 294.979 167.91C294.573 168.464 294.314 169.111 294.225 169.792C292.088 180.093 294.406 190.945 292.109 201.21C291.397 204.386 290.247 207.529 290.407 210.78C290.635 215.372 293.448 219.464 294.175 224.007C295.204 230.465 291.917 236.848 291.828 243.388C291.682 253.99 299.843 263.311 300.018 273.914L294.677 296.267" fill="#A1C2FD"/>
<path d="M316.725 167.48C316.17 171.327 316.604 175.252 317.985 178.886C318.371 179.903 318.83 180.891 319.36 181.841C319.47 182.043 319.78 181.862 319.67 181.663C317.821 178.328 316.848 174.58 316.842 170.769C316.839 169.699 316.914 168.631 317.067 167.572C317.099 167.348 316.757 167.253 316.711 167.48H316.725Z" fill="#5F7CB0"/>
<path d="M379.789 168.787C380.566 172.088 380.807 175.491 380.501 178.868C380.414 179.832 380.282 180.789 380.106 181.741C380.064 181.965 380.405 182.061 380.462 181.837C381.085 178.455 381.161 174.996 380.687 171.59C380.549 170.616 380.367 169.65 380.142 168.691C380.088 168.471 379.743 168.563 379.786 168.787H379.789Z" fill="#5F7CB0"/>
<path d="M389.19 175.696L388.78 181.816C388.78 182.043 389.136 182.043 389.136 181.816L389.546 175.696C389.546 175.469 389.19 175.469 389.19 175.696Z" fill="#5F7CB0"/>
<path d="M290.981 212.477C291.618 215.134 292.879 217.575 293.829 220.118C294.326 221.364 294.693 222.658 294.922 223.979C295.118 225.31 295.137 226.661 294.979 227.996C294.395 233.357 291.704 238.269 291.376 243.679C291.063 248.865 293.096 253.77 295.168 258.416C296.236 260.835 297.369 263.244 298.259 265.744C299.178 268.261 299.758 270.889 299.982 273.559C300.401 278.94 299.325 284.332 296.87 289.142C296.566 289.731 296.244 290.308 295.902 290.872C295.879 290.912 295.872 290.96 295.884 291.005C295.896 291.05 295.925 291.089 295.966 291.112C296.006 291.136 296.054 291.143 296.099 291.132C296.144 291.121 296.183 291.092 296.208 291.053C298.963 286.464 300.421 281.217 300.427 275.868C300.434 273.21 300.075 270.564 299.359 268.003C298.609 265.507 297.68 263.067 296.578 260.704C294.442 255.909 291.985 251.014 291.725 245.682C291.454 240.152 294.054 235.129 295.068 229.804C295.612 227.218 295.535 224.541 294.844 221.99C294.086 219.351 292.779 216.91 291.882 214.321C291.661 213.682 291.469 213.039 291.312 212.382C291.258 212.161 290.917 212.254 290.956 212.477H290.981Z" fill="#5F7CB0"/>
<path d="M301.446 264.657C303.55 266.202 305.719 267.797 308.307 268.476C311.006 269.186 313.83 268.739 316.451 267.911C317.985 267.424 319.477 266.813 320.962 266.188C321.169 266.103 321.08 265.758 320.866 265.833C318.334 266.899 315.735 267.964 312.993 268.319C311.621 268.523 310.223 268.486 308.863 268.209C307.598 267.92 306.384 267.441 305.263 266.789C304.003 266.043 302.788 265.225 301.624 264.338C301.439 264.203 301.268 264.512 301.446 264.647V264.657Z" fill="#5F7CB0"/>
<path d="M338.983 269.563C341.149 267.375 343.554 265.436 346.151 263.78C348.754 262.086 351.492 260.583 354.212 259.12C356.865 257.699 359.532 256.278 362.11 254.726C364.64 253.228 367.04 251.522 369.285 249.625C371.488 247.76 373.407 245.584 374.982 243.167C375.175 242.865 375.36 242.56 375.541 242.251C375.565 242.21 375.572 242.161 375.56 242.115C375.548 242.069 375.518 242.03 375.477 242.006C375.436 241.982 375.387 241.975 375.341 241.987C375.295 241.999 375.256 242.029 375.232 242.07C373.75 244.569 371.891 246.825 369.72 248.758C367.53 250.703 365.17 252.446 362.666 253.966C360.116 255.546 357.474 256.96 354.832 258.377C352.115 259.837 349.402 261.301 346.792 262.942C344.185 264.546 341.75 266.413 339.524 268.511C339.254 268.774 338.987 269.041 338.723 269.311C338.563 269.477 338.816 269.726 338.976 269.563H338.983Z" fill="#5F7CB0"/>
<path d="M365.739 259.056C368.212 257.03 370.378 254.657 372.169 252.012C372.68 251.257 373.154 250.48 373.594 249.682C373.704 249.483 373.398 249.302 373.284 249.501C371.731 252.271 369.781 254.8 367.494 257.006C366.846 257.635 366.17 258.232 365.472 258.804C365.294 258.949 365.546 259.198 365.724 259.056H365.739Z" fill="#5F7CB0"/>
<path d="M291.326 200.226L292.946 190.991L293.406 188.384C293.445 188.16 293.103 188.064 293.05 188.288L291.429 197.523L290.97 200.13C290.931 200.354 291.273 200.45 291.326 200.226Z" fill="#5F7CB0"/>
<path d="M291.661 203.086L296.941 194.49C297.062 194.294 296.756 194.117 296.635 194.312L291.355 202.905C291.234 203.1 291.543 203.278 291.661 203.086Z" fill="#5F7CB0"/>
<path d="M323.28 167.817C323.28 167.817 321.56 194.646 346.165 194.646C370.77 194.646 374.206 168.958 374.206 168.958L323.28 167.817Z" fill="#FF9A63"/>
<path d="M420.834 236.315L419.83 275.054C419.83 275.054 418.267 284.833 408.539 291.685C402.322 296.061 396.81 293.912 393.039 289.408C389.928 285.606 388.426 280.743 388.851 275.853L389.656 265.428L390.226 234.031L420.834 236.315Z" fill="#FF9A63"/>
<path d="M398.804 174.239C394.285 176.605 390.493 182.335 389.681 187.361C387.06 203.551 384.789 223.038 385.052 239.434C396.382 239.814 413.403 237.939 424.708 238.777C427.717 222.924 423.903 205.743 420.41 189.996C419.987 187.81 419.328 185.676 418.445 183.631C414.987 176.2 405.85 171.909 397.906 173.994" fill="#A1C2FD"/>
<path d="M385.344 211.604L384.988 225.062L384.806 231.811L384.714 235.129L384.671 236.813C384.635 237.336 384.625 237.862 384.643 238.386C384.64 238.583 384.689 238.777 384.785 238.948C384.881 239.12 385.021 239.263 385.191 239.363C385.599 239.521 386.036 239.591 386.473 239.569C387.567 239.626 388.663 239.674 389.759 239.715C391.979 239.793 394.2 239.834 396.422 239.839C400.865 239.839 405.306 239.695 409.742 239.406C414.136 239.11 418.515 238.668 422.878 238.081L424.527 237.853C424.754 237.821 424.658 237.477 424.434 237.498C420.106 238.121 415.764 238.595 411.405 238.919C407.047 239.243 402.692 239.428 398.341 239.473C396.162 239.49 393.984 239.472 391.807 239.42C390.71 239.391 389.617 239.352 388.52 239.31L386.943 239.235C386.445 239.257 385.947 239.21 385.462 239.097C384.967 238.923 384.974 238.386 384.984 237.96L385.027 236.323L385.116 233.047L385.298 226.405L385.654 213.213L385.697 211.618C385.697 211.391 385.34 211.391 385.34 211.618L385.344 211.604Z" fill="#5F7CB0"/>
<path d="M323.419 297.173C347.632 297.855 407.474 298.48 412.94 288.229C419.812 275.349 411.266 262.562 398.092 264.338L324.028 277.775C317.896 278.624 313.346 280.656 313.346 286.833C313.345 289.526 314.397 292.112 316.278 294.043C318.159 295.974 320.721 297.097 323.419 297.173Z" fill="#FF9A63"/>
<path d="M380.897 268.117C387.353 265.095 394.541 263.979 401.613 264.899C401.841 264.927 401.837 264.572 401.613 264.544C398.836 264.183 396.027 264.134 393.238 264.398C390.46 264.66 387.72 265.227 385.066 266.089C383.582 266.571 382.13 267.147 380.719 267.812C380.509 267.907 380.69 268.213 380.897 268.117Z" fill="#B26033"/>
<path d="M304.138 285.131L295.542 286.275C295.542 286.275 282.367 285.131 286.387 289.699L294.972 291.411C294.972 291.411 311.565 294.836 310.422 287.987C309.279 281.139 304.138 285.131 304.138 285.131Z" fill="#FF9A63"/>
<path d="M320.93 294.175C336.487 288.705 325.31 278.191 325.31 278.191C325.31 278.191 313.168 274.362 303.999 266.696C303.274 266.089 302.398 265.69 301.463 265.542C300.528 265.393 299.571 265.501 298.693 265.854L290.147 269.3H283.688C282.316 269.299 280.994 269.814 279.985 270.742L274.113 276.148L270.111 281.856L267.263 287.565C267.263 287.565 267.263 290.406 271.268 287.565C271.268 287.565 275.135 289.848 277.421 285.284L283.856 282.442C283.856 282.442 287.292 284.155 290.151 282.442C290.151 282.442 305.391 299.663 320.944 294.193" fill="#FF9A63"/>
<path d="M286.06 276.059L284.767 276.244C284.372 276.297 283.955 276.322 283.564 276.415C283.346 276.468 283.129 276.56 282.916 276.631L281.438 277.125L278.066 278.247C277.777 278.343 277.485 278.432 277.201 278.535C277.069 278.581 277.015 278.681 276.941 278.791L273.526 283.803L271.685 286.534L271.147 287.319C270.899 287.626 270.594 287.882 270.25 288.076C269.573 288.534 268.153 289.408 267.494 288.477C267.359 288.279 267.271 288.053 267.234 287.817C267.233 287.8 267.233 287.784 267.234 287.767C267.234 287.767 267.234 287.806 267.234 287.767C267.234 287.728 267.191 287.806 267.287 287.668C267.442 287.417 267.582 287.157 267.704 286.89L268.163 286.034L269.944 282.688C270.521 281.622 271.094 280.528 271.749 279.491C273.045 277.541 274.578 275.76 276.314 274.187C276.722 273.801 277.134 273.417 277.55 273.033C277.972 272.654 278.414 272.299 278.874 271.967C279.296 271.673 279.691 271.342 280.053 270.976C280.28 270.73 280.543 270.518 280.833 270.348C281.486 270.003 282.194 269.773 282.926 269.669C283.765 269.536 284.612 269.462 285.462 269.449C286.305 269.424 287.153 269.449 288 269.449H289.172C289.443 269.468 289.715 269.459 289.984 269.421C290.146 269.369 290.305 269.309 290.461 269.239L291.586 268.81L298.159 266.323C298.611 266.149 299.064 265.94 299.53 265.805C299.58 265.787 299.53 265.805 299.587 265.805C299.644 265.805 299.737 265.787 299.811 265.783C300.039 265.783 300.271 265.762 300.499 265.783C301.198 265.796 301.89 265.916 302.553 266.139C303.407 266.438 304.175 266.942 304.789 267.606C304.946 267.772 305.195 267.52 305.042 267.353C304.046 266.308 302.714 265.643 301.278 265.474C300.822 265.412 300.36 265.394 299.9 265.421C299.739 265.421 299.578 265.438 299.42 265.471C298.999 265.588 298.586 265.787 298.184 265.943L295.563 266.938L290.407 268.902C290.247 268.962 290.087 269.041 289.923 269.087C289.835 269.102 289.745 269.108 289.656 269.104C289.361 269.104 289.061 269.104 288.762 269.104C287.338 269.104 285.914 269.062 284.489 269.154C283.215 269.239 281.847 269.399 280.708 270.024C280.113 270.351 279.711 270.873 279.187 271.296C278.831 271.587 278.45 271.847 278.084 272.127C277.725 272.403 277.382 272.697 277.055 273.008C275.603 274.304 274.239 275.693 272.97 277.168C271.736 278.737 270.663 280.426 269.766 282.208C269.265 283.155 268.76 284.102 268.252 285.05L267.505 286.449L267.149 287.11L266.963 287.465C266.901 287.55 266.857 287.646 266.835 287.749C266.848 288.126 266.987 288.488 267.231 288.776C267.768 289.433 268.655 289.291 269.367 288.992C269.691 288.848 270.002 288.675 270.296 288.477C270.485 288.353 270.652 288.225 270.845 288.09C271.013 287.981 271.168 287.854 271.308 287.71C271.375 287.628 271.429 287.533 271.489 287.447L274.359 283.235L277.208 279.061L277.364 278.83L277.258 278.912L280.818 277.736L283.037 276.997C283.321 276.887 283.616 276.804 283.916 276.749L286.177 276.425C286.405 276.393 286.309 276.052 286.085 276.07L286.06 276.059Z" fill="#B26033"/>
<path d="M287.943 269.431H293.028" stroke="#B26033" stroke-miterlimit="10"/>
<path d="M327.186 145.184L333.792 175.891C333.792 175.891 343.854 179.5 357.164 159.967L351.567 137.422L327.186 145.184Z" fill="#FF9A63"/>
<path d="M331.324 164.72C331.324 164.72 346.016 157.261 351.567 137.422L327.186 145.184L331.324 164.72Z" fill="#B26033"/>
<path d="M332.439 170.343C332.892 173.949 333.606 177.517 334.575 181.02C334.587 181.067 334.618 181.108 334.66 181.132C334.702 181.157 334.752 181.164 334.799 181.152C334.847 181.14 334.887 181.109 334.912 181.067C334.936 181.025 334.943 180.975 334.931 180.928C333.962 177.456 333.248 173.918 332.795 170.343C332.766 170.119 332.41 170.116 332.439 170.343Z" fill="#B26033"/>
<path d="M134.133 117.637C134.132 118.31 134.264 118.976 134.522 119.598C134.779 120.219 135.157 120.784 135.634 121.26C136.111 121.736 136.676 122.113 137.299 122.37C137.922 122.628 138.59 122.76 139.264 122.759C139.357 122.759 139.442 122.759 139.528 122.759L148.658 122.777C149.996 122.742 151.267 122.187 152.201 121.231C153.134 120.274 153.657 118.992 153.657 117.657C153.657 116.322 153.134 115.039 152.201 114.083C151.267 113.127 149.996 112.572 148.658 112.536H139.613C139.496 112.536 139.382 112.536 139.257 112.536C137.901 112.538 136.6 113.076 135.64 114.032C134.68 114.988 134.138 116.284 134.133 117.637Z" fill="#F96A55"/>
<path d="M148.601 117.946C148.594 117.754 148.533 117.568 148.423 117.41C148.38 117.339 148.33 117.268 148.28 117.2L147.97 116.888C147.853 116.802 147.735 116.714 147.614 116.632C147.119 116.318 146.568 116.104 145.991 116C144.657 115.733 143.283 115.733 141.949 116C141.378 116.099 140.832 116.31 140.343 116.621C140.219 116.703 140.098 116.799 139.987 116.888L139.688 117.183C139.613 117.303 139.528 117.417 139.467 117.538C139.416 117.662 139.373 117.791 139.339 117.921H139.432H141.981C142.003 117.924 142.024 117.919 142.043 117.908C142.062 117.897 142.076 117.881 142.085 117.861C142.157 117.722 142.265 117.604 142.397 117.52C142.53 117.435 142.682 117.388 142.839 117.381C143.608 117.332 144.378 117.332 145.147 117.381C145.303 117.389 145.455 117.438 145.587 117.523C145.719 117.607 145.826 117.725 145.898 117.865C145.919 117.9 145.937 117.925 145.987 117.925H148.618L148.601 117.946Z" fill="white"/>
<path d="M148.604 119.435V118.536C148.606 118.515 148.606 118.493 148.604 118.472H145.991C145.991 118.532 145.991 118.596 145.991 118.664C145.991 118.919 145.991 119.175 145.991 119.431C145.984 119.476 145.988 119.522 146.002 119.565C146.017 119.608 146.041 119.647 146.073 119.679C146.105 119.711 146.145 119.735 146.188 119.75C146.231 119.764 146.277 119.768 146.322 119.761H148.27C148.315 119.769 148.361 119.766 148.405 119.753C148.448 119.739 148.488 119.715 148.521 119.684C148.554 119.652 148.578 119.612 148.593 119.569C148.607 119.526 148.611 119.48 148.604 119.435Z" fill="white"/>
<path d="M141.949 119.445C141.949 119.118 141.949 118.792 141.924 118.468H139.346C139.346 118.468 139.346 118.5 139.346 118.522V119.435C139.341 119.478 139.345 119.521 139.359 119.563C139.372 119.604 139.396 119.641 139.426 119.672C139.457 119.703 139.494 119.726 139.535 119.741C139.576 119.755 139.62 119.759 139.663 119.754H141.636C141.678 119.759 141.72 119.754 141.76 119.74C141.8 119.726 141.836 119.703 141.866 119.674C141.896 119.644 141.919 119.608 141.933 119.569C141.948 119.529 141.953 119.487 141.949 119.445Z" fill="white"/>
<path d="M324.587 85.0577C315.436 83.9921 319.424 80.6461 308.14 89.3948C299.195 96.3249 297.778 122.308 321.892 125.573L324.587 85.0577Z" fill="#080C12"/>
<path d="M363.994 126.951C359.942 146.818 341.657 159.601 326.994 156.625C312.331 153.648 306.84 136.023 310.889 116.177C309.372 92.9647 330.117 82.6424 344.776 85.5941C363.713 89.402 368.042 107.084 363.994 126.951Z" fill="#FF9A63"/>
<path d="M398.209 224.238C406.733 204.396 387.438 166.262 378.775 154.408C370.111 142.555 393.427 103.859 376.079 88.2191C358.731 72.5794 324.587 85.0578 324.587 85.0578C313.036 106.747 342.715 120.578 354.451 126.354L360.266 137.447C360.266 137.447 349.94 141.188 344.534 152.124C339.24 162.841 345.624 178.41 351.328 184.363C357.033 190.316 359.076 225.62 359.076 225.62L364.279 225.435L365.144 219.848L367.092 225.325L382.09 223.904L382.713 220.541L383.496 223.769L384.543 219.894L385.839 223.546L398.209 224.238Z" fill="#080C12"/>
<path d="M363.595 132.766C362.94 138.257 359.119 142.321 355.049 141.841C350.979 141.362 348.227 136.513 348.882 131.022C349.537 125.53 353.358 121.466 357.428 121.946C361.498 122.426 364.264 127.271 363.595 132.766Z" fill="#FF9A63"/>
<path opacity="0.29" d="M335.109 87.4802C335.109 87.4802 339.382 110.174 359.732 121.147" stroke="#9D513F" stroke-width="0.5" stroke-linecap="round" stroke-linejoin="round"/>
<path opacity="0.29" d="M359.675 141.131C359.675 141.131 349.227 157.399 357.139 168.947" stroke="#9D513F" stroke-width="0.5" stroke-linecap="round" stroke-linejoin="round"/>
<path opacity="0.29" d="M345.652 80.5963C345.652 80.5963 348.935 88.8904 354.362 95.071" stroke="#9D513F" stroke-width="0.5" stroke-linecap="round" stroke-linejoin="round"/>
<path d="M353.418 133.298L361.676 128.073" stroke="#221F32" stroke-width="0.5" stroke-linecap="round" stroke-linejoin="round"/>
<path d="M320.083 117.481C320.083 117.481 318.804 124.464 316.789 125.399C314.774 126.333 311.053 128.855 316.761 132.172L319.15 133.529" stroke="#1F2E48" stroke-miterlimit="10"/>
<path d="M311.59 112.803C311.656 112.803 311.722 112.796 311.786 112.782L316.828 111.769C317.075 111.705 317.287 111.549 317.422 111.333C317.557 111.118 317.604 110.859 317.553 110.61C317.503 110.361 317.358 110.14 317.15 109.994C316.942 109.848 316.685 109.786 316.433 109.823L311.394 110.835C311.154 110.886 310.941 111.023 310.795 111.221C310.65 111.418 310.583 111.663 310.607 111.907C310.632 112.151 310.745 112.377 310.927 112.543C311.108 112.708 311.345 112.801 311.59 112.803Z" fill="#080C12"/>
<path d="M334.059 113.13C334.305 113.132 334.543 113.043 334.728 112.879C334.912 112.716 335.029 112.49 335.055 112.246C335.082 112.001 335.016 111.756 334.872 111.557C334.727 111.358 334.513 111.22 334.272 111.169L326.328 109.432C326.07 109.376 325.801 109.424 325.579 109.567C325.357 109.709 325.2 109.933 325.144 110.19C325.088 110.448 325.137 110.717 325.279 110.938C325.422 111.16 325.647 111.315 325.905 111.371L333.845 113.108C333.915 113.122 333.987 113.13 334.059 113.13Z" fill="#080C12"/>
<g opacity="0.29">
<path d="M363.289 149.382C362.221 153.783 362.445 158.351 363.467 162.734C364.535 167.274 366.39 171.597 368.53 175.728C370.67 179.859 373.113 183.738 375.435 187.723C377.756 191.709 379.935 195.708 381.595 199.974C383.197 204.109 384.272 208.478 384.294 212.929C384.294 213.49 384.294 214.055 384.251 214.616C384.251 214.729 384.422 214.729 384.429 214.616C384.66 210.225 383.849 205.867 382.424 201.725C380.964 197.488 378.913 193.477 376.727 189.581C374.47 185.592 372.002 181.72 369.798 177.696C367.533 173.558 365.497 169.252 364.186 164.709C362.919 160.315 362.367 155.676 363.118 151.14C363.214 150.565 363.332 149.997 363.474 149.432C363.503 149.318 363.328 149.272 363.303 149.382H363.289Z" fill="#9D513F"/>
</g>
<g opacity="0.29">
<path d="M370.763 148.185C369.423 158.31 371.523 168.591 376.727 177.387C379.22 181.61 382.549 185.244 385.629 189.044C388.709 192.845 391.579 196.93 392.797 201.722C394.221 207.323 393.42 213.184 392.441 218.772C392.32 219.461 392.191 220.153 392.085 220.843C392.063 220.956 392.234 221.002 392.255 220.889C393.263 215.419 394.278 209.792 393.498 204.226C393.145 201.712 392.388 199.271 391.255 196.998C390.167 194.869 388.881 192.847 387.413 190.959C384.465 187.073 381.068 183.532 378.322 179.489C372.515 170.871 369.839 160.53 370.738 150.185C370.8 149.519 370.874 148.858 370.962 148.199C370.962 148.089 370.805 148.039 370.791 148.153L370.763 148.185Z" fill="#9D513F"/>
</g>
<g opacity="0.29">
<path d="M360.946 175.71C362.777 177.706 364.362 179.913 365.667 182.285C366.983 184.673 368.069 187.18 368.911 189.773C369.775 192.443 370.439 195.174 370.898 197.942C371.412 201.061 371.759 204.204 371.938 207.359C372.134 210.485 372.219 213.614 372.294 216.744C372.294 217.131 372.294 217.521 372.319 217.912C372.319 218.026 372.5 218.026 372.497 217.912C372.426 214.737 372.354 211.565 372.176 208.396C371.998 205.228 371.728 202.116 371.251 199.004C370.825 196.153 370.191 193.337 369.353 190.579C368.56 187.98 367.531 185.458 366.28 183.045C365.033 180.645 363.511 178.398 361.743 176.349C361.523 176.096 361.298 175.847 361.07 175.603C360.992 175.518 360.868 175.646 360.946 175.728V175.71Z" fill="#9D513F"/>
</g>
<g opacity="0.29">
<path d="M354.864 109.379C356.902 111.718 359.097 113.916 361.434 115.957C363.698 117.868 366.219 119.555 369.039 120.525C370.603 121.068 372.244 121.356 373.9 121.378C373.923 121.378 373.946 121.368 373.963 121.352C373.979 121.335 373.989 121.312 373.989 121.289C373.989 121.265 373.979 121.243 373.963 121.226C373.946 121.209 373.923 121.2 373.9 121.2C370.953 121.112 368.082 120.255 365.571 118.714C362.951 117.172 360.65 115.162 358.514 113.005C357.3 111.791 356.139 110.519 354.989 109.254C354.914 109.169 354.789 109.294 354.864 109.379Z" fill="#9D513F"/>
</g>
<path d="M340.069 150.618L339.151 148.842C339.215 148.81 345.56 145.567 347.981 143.514C353.718 138.705 358.998 131.025 359.048 130.947L360.714 132.08C360.494 132.403 355.231 140.065 349.277 145.056C346.667 147.24 340.336 150.483 340.069 150.618Z" fill="#444AB4"/>
<path d="M344.784 145.063C344.784 145.063 336.135 148.913 336.135 149.766C336.135 150.618 337.505 152.334 338.534 152.252C339.564 152.171 342.537 150.498 343.053 149.812C343.569 149.126 344.534 147.372 345.546 146.516L344.784 145.063Z" fill="#1A2E35"/>
<path d="M360.65 119.175L358.635 119.079C358.635 118.998 358.991 110.554 355.679 102.03C351.303 90.7872 342.893 84.7487 330.68 84.0845C329.567 84.0362 328.453 84.1113 327.357 84.3083L328.24 83.4771C328.669 83.0752 329.165 82.7528 329.707 82.5251C330.452 82.2161 330.754 83.1006 331.559 83.1681C346.981 84.5001 354.451 93.2737 357.584 101.362C359.723 107.054 360.763 113.098 360.65 119.175Z" fill="#444AB4"/>
<path d="M359.643 137.454C363.173 137.454 366.034 133.351 366.034 128.29C366.034 123.229 363.173 119.126 359.643 119.126C356.113 119.126 353.251 123.229 353.251 128.29C353.251 133.351 356.113 137.454 359.643 137.454Z" fill="#FDC93B"/>
<path d="M366.045 128.294C366.04 128.252 366.04 128.211 366.045 128.169C366.045 128.07 366.045 127.945 366.02 127.814C366.02 127.487 365.956 127.008 365.87 126.393C365.612 124.66 364.935 123.016 363.898 121.601C363.549 121.144 363.146 120.73 362.698 120.369C362.21 119.985 361.66 119.688 361.07 119.492C360.439 119.287 359.771 119.223 359.112 119.303C358.417 119.408 357.753 119.657 357.161 120.035C355.902 120.899 354.929 122.117 354.366 123.534C353.098 126.593 353.098 130.029 354.366 133.089C354.929 134.507 355.902 135.725 357.161 136.591C357.753 136.968 358.417 137.216 359.112 137.319C359.771 137.402 360.44 137.337 361.07 137.131C361.66 136.936 362.211 136.639 362.698 136.254C363.147 135.894 363.55 135.48 363.898 135.021C364.935 133.607 365.612 131.963 365.87 130.229C365.956 129.618 366.009 129.139 366.02 128.809C366.02 128.656 366.038 128.535 366.045 128.453C366.04 128.411 366.04 128.368 366.045 128.326C366.045 128.326 366.045 128.368 366.045 128.453V128.809C366.039 129.284 366.005 129.758 365.942 130.229C365.718 131.994 365.057 133.675 364.019 135.121C363.664 135.594 363.253 136.022 362.794 136.396C362.291 136.802 361.721 137.117 361.11 137.326C360.448 137.546 359.747 137.616 359.055 137.532C358.325 137.428 357.625 137.172 357.001 136.779C355.698 135.892 354.689 134.638 354.102 133.178C353.456 131.632 353.123 129.974 353.123 128.299C353.123 126.624 353.456 124.966 354.102 123.42C354.689 121.958 355.697 120.703 357.001 119.815C357.625 119.423 358.325 119.166 359.055 119.062C359.747 118.981 360.448 119.053 361.11 119.271C361.721 119.48 362.291 119.794 362.794 120.198C363.253 120.571 363.663 120.999 364.015 121.474C365.057 122.918 365.719 124.6 365.942 126.365C366.005 126.836 366.039 127.31 366.045 127.786V128.141C366.045 128.247 366.045 128.294 366.045 128.294Z" fill="#FD8340"/>
<path d="M360.629 133.607C362.875 133.607 364.695 130.996 364.695 127.775C364.695 124.554 362.875 121.942 360.629 121.942C358.383 121.942 356.563 124.554 356.563 127.775C356.563 130.996 358.383 133.607 360.629 133.607Z" fill="#FDC93B"/>
<path d="M364.695 127.775C364.667 127.775 364.695 127.334 364.553 126.557C364.383 125.459 363.949 124.418 363.289 123.523C362.843 122.912 362.223 122.45 361.508 122.198C361.112 122.073 360.693 122.034 360.28 122.084C359.844 122.15 359.427 122.306 359.055 122.543C358.264 123.09 357.652 123.859 357.296 124.752C356.496 126.686 356.496 128.857 357.296 130.791C357.652 131.684 358.264 132.452 359.055 133C359.427 133.236 359.844 133.393 360.28 133.462C360.693 133.513 361.112 133.473 361.508 133.345C362.222 133.091 362.842 132.63 363.289 132.02C363.947 131.124 364.379 130.084 364.549 128.986C364.674 128.208 364.663 127.768 364.692 127.768C364.705 127.874 364.705 127.981 364.692 128.087C364.696 128.393 364.678 128.698 364.638 129C364.503 130.129 364.084 131.206 363.421 132.13C362.959 132.782 362.308 133.278 361.555 133.551C361.129 133.694 360.677 133.741 360.23 133.689C359.759 133.624 359.308 133.459 358.906 133.206C358.067 132.638 357.417 131.833 357.04 130.894C356.624 129.904 356.41 128.842 356.41 127.77C356.41 126.697 356.624 125.635 357.04 124.646C357.416 123.706 358.066 122.901 358.906 122.333C359.308 122.08 359.759 121.914 360.23 121.846C360.677 121.795 361.129 121.842 361.555 121.985C362.308 122.257 362.959 122.753 363.421 123.406C364.082 124.331 364.501 125.407 364.638 126.535C364.678 126.838 364.696 127.143 364.692 127.448C364.707 127.556 364.708 127.666 364.695 127.775Z" fill="#FD8340"/>
<path d="M360.91 131.97C362.527 131.97 363.837 130.092 363.837 127.775C363.837 125.458 362.527 123.58 360.91 123.58C359.294 123.58 357.983 125.458 357.983 127.775C357.983 130.092 359.294 131.97 360.91 131.97Z" fill="#FD8340"/>
<path d="M363.834 127.775C363.809 127.775 363.812 127.459 363.72 126.901C363.591 126.117 363.277 125.374 362.805 124.734C362.485 124.299 362.04 123.971 361.53 123.793C361.24 123.701 360.934 123.676 360.633 123.718C360.332 123.761 360.045 123.87 359.792 124.038C358.699 124.749 358.115 126.269 358.115 127.775C358.115 129.281 358.699 130.791 359.792 131.512C360.045 131.68 360.332 131.789 360.633 131.832C360.933 131.875 361.24 131.851 361.53 131.76C362.039 131.58 362.483 131.252 362.805 130.819C363.277 130.178 363.591 129.434 363.72 128.649C363.812 128.091 363.809 127.775 363.834 127.775C363.855 127.85 363.862 127.928 363.855 128.006C363.858 128.227 363.846 128.447 363.819 128.667C363.728 129.482 363.429 130.261 362.951 130.929C362.615 131.403 362.143 131.765 361.597 131.966C361.287 132.069 360.958 132.103 360.633 132.066C360.288 132.019 359.957 131.898 359.664 131.711C359.055 131.299 358.582 130.715 358.307 130.034C358.006 129.317 357.852 128.548 357.852 127.771C357.852 126.995 358.006 126.225 358.307 125.509C358.582 124.828 359.055 124.244 359.664 123.832C359.958 123.648 360.288 123.527 360.633 123.477C360.958 123.441 361.287 123.476 361.597 123.58C362.144 123.779 362.616 124.139 362.951 124.614C363.428 125.283 363.727 126.063 363.819 126.88C363.846 127.099 363.858 127.32 363.855 127.541C363.862 127.619 363.855 127.699 363.834 127.775Z" fill="#444AB4"/>
<path d="M319.933 141.969C319.933 141.969 329.191 141.259 331.327 137.707C331.327 137.707 329.903 150.494 319.933 141.969Z" fill="white"/>
<path d="M331.342 121.228C331.214 122.443 330.395 123.36 329.515 123.257C328.636 123.154 328.027 122.106 328.155 120.895C328.283 119.683 329.099 118.763 329.982 118.866C330.865 118.969 331.47 120.017 331.342 121.228Z" fill="#221F32"/>
<path d="M317.106 118.554C316.978 119.769 316.159 120.685 315.279 120.582C314.4 120.479 313.791 119.431 313.919 118.22C314.047 117.009 314.866 116.089 315.746 116.192C316.625 116.295 317.234 117.342 317.106 118.554Z" fill="#221F32"/>
<path d="M195.694 300.687L208.525 235.644L179.436 229.934L165.798 300.623" fill="#7C8AFF"/>
<path d="M133.96 258.439H264.547C265.804 258.439 267.046 258.168 268.188 257.645C269.331 257.121 270.346 256.358 271.165 255.407C271.984 254.455 272.587 253.339 272.934 252.133C273.28 250.928 273.361 249.662 273.171 248.422L261.525 172.375C261.208 170.321 260.165 168.448 258.583 167.096C257.002 165.743 254.988 165 252.905 165H122.311C121.055 165 119.813 165.272 118.671 165.795C117.529 166.319 116.514 167.082 115.695 168.034C114.877 168.985 114.274 170.101 113.928 171.307C113.582 172.512 113.501 173.778 113.691 175.017L125.336 251.051C125.651 253.108 126.694 254.984 128.276 256.339C129.858 257.694 131.875 258.439 133.96 258.439Z" fill="#001BFE"/>
<path d="M259.626 168.639L273.804 252.918" stroke="#001BFE" stroke-width="4.48" stroke-miterlimit="10"/>
<path d="M189.239 223.675C195.073 223.675 199.801 218.958 199.801 213.138C199.801 207.319 195.073 202.602 189.239 202.602C183.406 202.602 178.677 207.319 178.677 213.138C178.677 218.958 183.406 223.675 189.239 223.675Z" fill="white"/>
<path d="M74.9893 227.492C76.702 223.418 79.8248 219.99 81.0853 215.77C81.7975 213.348 81.8794 210.78 81.8509 208.251C81.826 206.414 81.7441 204.532 81.0212 202.844C80.2984 201.157 78.7993 199.687 76.9691 199.505C81.3203 199.697 85.1837 202.805 87.135 206.688C89.0863 210.57 89.3605 215.11 88.8513 219.425C88.4383 222.935 87.427 225.137 84.9523 227.652C84.0657 228.551 83.0081 230.703 82.2176 231.691C80.8254 233.438 80.4373 235.8 80.5548 238.031C80.7133 240.578 81.4677 243.053 82.7575 245.257C84.0474 247.461 85.8369 249.333 87.9825 250.723C76.8374 248.197 69.8761 239.683 74.9893 227.492Z" fill="white"/>
</g>
<defs>
<clipPath id="clip0_240_3428">
<rect width="531" height="304" fill="white"/>
</clipPath>
</defs>
</svg>
