<svg width="761" height="395" viewBox="0 0 761 395" fill="none" xmlns="http://www.w3.org/2000/svg">
<g opacity="0.57">
<path d="M328.93 332.069C313.068 350.875 283.545 349.092 261.797 344.012C241.34 339.233 222.37 326.127 211.52 308.016C207.705 301.651 205.801 293.386 212.212 288.126C215.734 285.233 220.593 283.917 225.052 283.463C220.062 283.972 212.362 280.057 207.748 278.298C199.575 275.185 179.292 262.453 194.617 254.219C200.365 251.132 206.49 252.483 208.85 253.146C200.125 250.695 189.527 248.598 183.142 241.573C175.035 232.64 181.665 217.031 194.614 221.9C186.418 215.478 176.405 206.278 173.717 195.784C171.698 187.857 175.577 179.771 183.811 177.824C188.979 176.606 194.482 178.012 199.131 180.587C207.881 185.439 215.281 193.528 220.406 202.039C217.418 197.078 219.292 188.517 222.6 184.276C224.414 181.961 227.137 180.225 230.079 180.11C244.282 179.531 252.138 203.179 253.799 213.959C251.933 201.851 259.345 187.473 273.012 196.039C283.153 202.404 291.144 215.683 289.226 227.918C289.95 223.289 291.735 217.37 294.994 213.892C301.071 207.397 306.386 218.449 308.211 223.15C311.934 232.794 312.484 243.38 309.78 253.36C310.882 249.31 318.029 243.234 322.06 242.473C335.517 239.936 338.404 273.027 339.413 281.241C341.403 297.428 340.723 315.518 331.05 329.33C330.375 330.276 329.665 331.193 328.93 332.069Z" fill="url(#paint0_linear_240_3335)"/>
<path opacity="0.5" d="M359.523 356.094L300.272 298.81L303.785 246.466C303.809 245.983 303.643 245.509 303.323 245.148C303.003 244.786 302.553 244.565 302.072 244.533C301.591 244.501 301.117 244.66 300.751 244.975C300.386 245.291 300.159 245.738 300.119 246.22L296.82 295.451L264.692 264.388L270.529 226.006C270.566 225.766 270.555 225.522 270.497 225.287C270.439 225.052 270.336 224.83 270.193 224.635C270.05 224.44 269.87 224.276 269.663 224.15C269.457 224.025 269.228 223.942 268.989 223.905C268.751 223.869 268.507 223.88 268.273 223.938C268.039 223.996 267.818 224.099 267.623 224.243C267.429 224.386 267.265 224.567 267.14 224.774C267.015 224.981 266.932 225.211 266.895 225.45L261.453 261.255L234.684 235.371L236.034 204.064C236.054 203.576 235.881 203.1 235.551 202.741C235.222 202.381 234.764 202.167 234.278 202.146C233.793 202.134 233.323 202.311 232.966 202.64C232.609 202.968 232.392 203.423 232.363 203.908L231.154 231.954L199.618 201.461C199.265 201.134 198.798 200.958 198.318 200.972C197.838 200.986 197.382 201.188 197.049 201.535C196.715 201.882 196.53 202.346 196.534 202.828C196.538 203.31 196.73 203.772 197.068 204.114L228.536 234.532L198.231 236.45C197.752 236.476 197.302 236.69 196.978 237.045C196.654 237.399 196.481 237.867 196.497 238.348C196.512 238.828 196.713 239.284 197.059 239.618C197.405 239.951 197.867 240.136 198.346 240.133H198.461L232.123 238.003L258.633 263.639L220.031 267.854C219.565 267.907 219.137 268.136 218.834 268.495C218.531 268.853 218.377 269.315 218.402 269.784C218.427 270.254 218.63 270.696 218.969 271.02C219.308 271.344 219.758 271.526 220.227 271.528C220.294 271.533 220.361 271.533 220.429 271.528L262.079 266.981L294.126 297.971L246.915 301.194C246.435 301.221 245.985 301.434 245.66 301.79C245.336 302.146 245.163 302.615 245.179 303.097C245.195 303.579 245.399 304.035 245.747 304.368C246.095 304.701 246.559 304.883 247.039 304.877H247.166L297.694 301.429L356.974 358.755C357.147 358.924 357.352 359.056 357.576 359.145C357.8 359.234 358.04 359.277 358.281 359.273C358.522 359.269 358.76 359.217 358.981 359.12C359.203 359.023 359.402 358.883 359.569 358.709C359.738 358.534 359.871 358.328 359.96 358.102C360.049 357.876 360.092 357.635 360.088 357.392C360.084 357.149 360.032 356.909 359.935 356.686C359.838 356.463 359.698 356.262 359.523 356.094Z" fill="white"/>
<path d="M159.606 289.272C146.654 284.397 140.02 300.008 148.13 308.945C154.388 315.836 164.713 317.994 173.33 320.381C170.683 319.699 164.987 318.712 159.606 321.596C144.283 329.827 164.566 342.563 172.733 345.676C177.348 347.438 185.042 351.343 190.037 350.837C185.573 351.297 180.713 352.616 177.195 355.501C170.781 360.763 172.684 369.02 176.497 375.396C180.404 381.866 185.266 387.704 190.917 392.712H298.518C305.812 379.516 306.207 363.277 304.408 348.598C304.324 347.898 304.223 347.021 304.105 345.994C302.827 335.017 299.363 307.516 287.055 309.85C283.017 310.614 275.873 316.687 274.772 320.743C276.344 314.935 276.824 308.885 276.188 302.901C276.067 301.675 275.899 300.459 275.663 299.241C275.118 296.264 274.293 293.346 273.2 290.525C271.374 285.826 266.062 274.775 259.983 281.267C256.729 284.738 254.947 290.684 254.215 295.292C255.683 285.91 251.331 275.909 244.651 268.89C243.521 267.706 242.311 266.6 241.032 265.58C240.065 264.798 239.052 264.075 237.998 263.416C229.577 258.145 223.532 261.573 220.573 267.82C220.041 268.934 219.616 270.096 219.304 271.291C218.453 274.567 218.278 277.982 218.791 281.327C217.637 273.805 213.452 260.002 206.205 252.558C206.141 252.492 206.075 252.428 206.012 252.365C202.914 249.257 199.286 247.313 195.079 247.49C194.2 247.527 193.333 247.698 192.506 247.996C190.572 248.739 188.881 250.004 187.621 251.653C184.313 255.894 182.429 264.455 185.423 269.422C180.298 260.905 172.892 252.816 164.148 247.967C159.499 245.386 153.996 243.986 148.825 245.204C140.586 247.148 136.698 255.237 138.731 263.165C141.399 273.643 151.412 282.846 159.606 289.272Z" fill="url(#paint1_linear_240_3335)"/>
<path opacity="0.5" d="M161.489 305.777C161.518 306.246 161.724 306.687 162.065 307.009C162.407 307.331 162.857 307.512 163.326 307.513H163.444L197.103 305.392L223.61 331.019L185.013 335.24C184.548 335.293 184.12 335.522 183.817 335.88C183.514 336.239 183.359 336.699 183.384 337.169C183.409 337.638 183.611 338.08 183.95 338.405C184.289 338.729 184.738 338.911 185.207 338.914C185.282 338.914 185.345 338.914 185.409 338.914L227.071 334.343L259.112 365.334L211.904 368.56C211.424 368.586 210.974 368.8 210.65 369.155C210.325 369.511 210.153 369.979 210.17 370.461C210.186 370.943 210.39 371.398 210.738 371.73C211.086 372.063 211.55 372.244 212.031 372.237H212.16L262.685 368.789L287.406 392.694H292.699L265.257 366.167L266.674 345.048L268.759 313.826C268.785 313.341 268.621 312.866 268.301 312.503C267.981 312.14 267.531 311.918 267.048 311.885C266.566 311.852 266.09 312.011 265.724 312.328C265.358 312.645 265.132 313.093 265.093 313.577L263.034 344.284L261.794 362.8L229.681 331.766L230.131 328.835L235.512 293.383C235.557 293.14 235.552 292.89 235.498 292.649C235.445 292.408 235.343 292.179 235.2 291.978C235.057 291.777 234.875 291.606 234.665 291.477C234.455 291.348 234.221 291.262 233.978 291.225C233.734 291.188 233.486 291.2 233.247 291.262C233.008 291.323 232.784 291.431 232.588 291.581C232.392 291.731 232.228 291.919 232.105 292.133C231.983 292.348 231.905 292.585 231.875 292.83L226.823 326.101L226.436 328.618L199.673 302.745L200.875 274.85L201.022 271.439C201.043 270.952 200.87 270.476 200.541 270.117C200.212 269.758 199.755 269.545 199.269 269.524C198.785 269.513 198.315 269.69 197.957 270.017C197.6 270.345 197.382 270.798 197.348 271.283L197.293 272.48L196.14 299.334L164.604 268.832C164.249 268.513 163.785 268.345 163.309 268.362C162.834 268.379 162.383 268.581 162.052 268.924C161.722 269.268 161.536 269.726 161.536 270.204C161.535 270.681 161.719 271.141 162.048 271.485L193.521 301.915L163.216 303.824C162.73 303.855 162.275 304.077 161.951 304.443C161.627 304.809 161.461 305.289 161.489 305.777Z" fill="white"/>
<path d="M474.416 332.069C490.277 350.875 519.801 349.092 541.549 344.012C562.005 339.233 580.976 326.127 591.825 308.01C595.641 301.646 597.544 293.38 591.133 288.12C587.612 285.227 582.752 283.911 578.294 283.457C583.283 283.966 590.983 280.052 595.598 278.293C603.771 275.18 624.054 262.447 608.729 254.213C602.981 251.126 596.855 252.477 594.496 253.14C603.22 250.69 613.819 248.592 620.204 241.568C628.311 232.634 621.68 217.025 608.731 221.895C616.928 215.472 626.941 206.272 629.629 195.779C631.648 187.852 627.769 179.765 619.535 177.818C614.367 176.6 608.864 178.006 604.215 180.581C595.465 185.433 588.065 193.522 582.94 202.033C585.928 197.072 584.053 188.511 580.745 184.27C578.931 181.955 576.209 180.22 573.267 180.104C559.063 179.525 551.207 203.173 549.546 213.953C551.415 201.845 544 187.467 530.333 196.033C520.193 202.398 512.201 215.677 514.119 227.912C513.395 223.283 511.61 217.364 508.351 213.886C502.275 207.391 496.96 218.443 495.134 223.144C491.412 232.788 490.862 243.374 493.565 253.354C492.464 249.304 485.317 243.228 481.285 242.467C467.828 239.93 464.942 273.021 463.932 281.235C461.942 297.422 462.623 315.512 472.296 329.324C472.971 330.276 473.68 331.193 474.416 332.069Z" fill="url(#paint2_linear_240_3335)"/>
<path opacity="0.5" d="M443.822 356.094L503.074 298.81L499.567 246.48C499.542 245.997 499.708 245.524 500.028 245.162C500.349 244.801 500.798 244.58 501.279 244.548C501.76 244.515 502.234 244.674 502.6 244.99C502.965 245.305 503.192 245.752 503.232 246.234L506.529 295.451L538.65 264.388L532.813 226.006C532.777 225.766 532.788 225.522 532.846 225.287C532.903 225.052 533.007 224.83 533.15 224.635C533.293 224.44 533.473 224.276 533.679 224.15C533.886 224.025 534.115 223.942 534.353 223.905C534.592 223.869 534.835 223.88 535.07 223.938C535.304 223.996 535.525 224.099 535.719 224.243C535.914 224.386 536.078 224.567 536.203 224.774C536.328 224.981 536.411 225.211 536.447 225.45L541.892 261.255L568.658 235.371L567.309 204.064C567.288 203.576 567.462 203.1 567.791 202.741C568.121 202.381 568.579 202.167 569.065 202.146C569.549 202.134 570.02 202.311 570.377 202.64C570.734 202.968 570.95 203.423 570.98 203.908L572.188 231.954L603.719 201.461C604.072 201.134 604.538 200.958 605.019 200.972C605.499 200.986 605.955 201.188 606.288 201.535C606.622 201.882 606.806 202.346 606.803 202.828C606.799 203.31 606.607 203.772 606.268 204.114L574.81 234.532L605.118 236.438C605.596 236.465 606.045 236.678 606.369 237.033C606.693 237.387 606.866 237.854 606.852 238.335C606.837 238.815 606.636 239.271 606.291 239.605C605.946 239.938 605.484 240.124 605.005 240.121H604.887L571.222 238.003L544.713 263.639L583.315 267.854C583.78 267.907 584.209 268.136 584.511 268.495C584.814 268.853 584.969 269.315 584.944 269.784C584.919 270.254 584.716 270.696 584.377 271.02C584.037 271.344 583.587 271.526 583.119 271.528C583.051 271.533 582.984 271.533 582.917 271.528L541.266 266.981L509.219 297.971L556.43 301.194C556.91 301.221 557.361 301.434 557.685 301.79C558.01 302.146 558.182 302.615 558.166 303.097C558.15 303.579 557.946 304.035 557.598 304.368C557.251 304.701 556.787 304.883 556.306 304.877H556.179L505.663 301.42L446.383 358.747C446.042 359.08 445.585 359.266 445.108 359.264C444.74 359.267 444.378 359.158 444.072 358.952C443.766 358.746 443.528 358.452 443.391 358.109C443.253 357.765 443.222 357.388 443.301 357.027C443.38 356.665 443.566 356.336 443.834 356.082L443.822 356.094Z" fill="white"/>
<path d="M643.74 289.272C656.695 284.397 663.325 300.008 655.215 308.945C648.957 315.836 638.632 317.994 630.015 320.381C632.663 319.699 638.359 318.712 643.74 321.596C659.063 329.827 638.78 342.563 630.612 345.676C625.998 347.438 618.303 351.343 613.308 350.837C617.773 351.297 622.632 352.616 626.151 355.501C632.565 360.763 630.661 369.02 626.849 375.396C622.942 381.866 618.08 387.704 612.429 392.712H504.827C497.534 379.516 497.138 363.277 498.938 348.598C499.022 347.898 499.123 347.021 499.226 345.994C500.504 335.017 503.968 307.516 516.277 309.85C520.314 310.614 527.458 316.687 528.559 320.743C526.987 314.935 526.507 308.885 527.143 302.901C527.265 301.675 527.432 300.459 527.668 299.241C528.215 296.265 529.039 293.346 530.131 290.525C531.957 285.826 537.269 274.775 543.349 281.267C546.602 284.738 548.384 290.684 549.116 295.292C547.649 285.91 552 275.909 558.68 268.89C559.81 267.706 561.02 266.6 562.299 265.58C563.266 264.798 564.279 264.075 565.333 263.416C573.757 258.145 579.799 261.573 582.758 267.82C583.29 268.934 583.715 270.096 584.027 271.291C584.88 274.566 585.055 277.982 584.54 281.327C585.694 273.805 589.879 260.002 597.126 252.558L597.319 252.365C600.417 249.257 604.045 247.313 608.253 247.49C609.131 247.527 609.998 247.698 610.825 247.996C612.76 248.739 614.451 250.005 615.713 251.653C619.019 255.894 620.905 264.455 617.908 269.422C623.033 260.905 630.439 252.816 639.183 247.967C643.832 245.386 649.335 243.986 654.506 245.204C662.746 247.148 666.633 255.237 664.6 263.165C661.95 273.643 651.936 282.846 643.74 289.272Z" fill="url(#paint3_linear_240_3335)"/>
<path opacity="0.5" d="M641.857 305.777C641.827 306.246 641.621 306.687 641.28 307.009C640.939 307.331 640.488 307.512 640.02 307.513H639.901L606.242 305.392L579.73 331.022L618.332 335.243C618.798 335.296 619.226 335.524 619.528 335.883C619.831 336.241 619.986 336.702 619.961 337.172C619.937 337.641 619.734 338.083 619.396 338.407C619.057 338.732 618.607 338.914 618.139 338.917C618.064 338.917 618 338.917 617.937 338.917L576.284 334.343L544.243 365.334L591.45 368.56C591.937 368.578 592.397 368.789 592.729 369.146C593.061 369.504 593.237 369.98 593.22 370.468C593.202 370.956 592.992 371.418 592.635 371.751C592.279 372.083 591.805 372.261 591.318 372.243H591.188L540.664 368.794L515.942 392.7H510.65L538.082 366.17L536.666 345.051L534.581 313.828C534.554 313.344 534.719 312.869 535.039 312.506C535.359 312.142 535.809 311.92 536.291 311.888C536.774 311.855 537.249 312.014 537.615 312.331C537.981 312.648 538.208 313.096 538.247 313.58L540.306 344.287L541.546 362.803L573.659 331.74L573.209 328.809L567.828 293.357C567.783 293.114 567.788 292.864 567.842 292.623C567.895 292.381 567.996 292.153 568.14 291.952C568.283 291.751 568.465 291.58 568.675 291.451C568.885 291.322 569.118 291.236 569.362 291.199C569.606 291.162 569.854 291.174 570.093 291.236C570.332 291.297 570.556 291.405 570.752 291.555C570.948 291.705 571.112 291.893 571.235 292.107C571.357 292.322 571.435 292.559 571.464 292.804L576.517 326.075L576.904 328.592L603.673 302.704L602.47 274.809L602.323 271.398C602.303 270.911 602.476 270.436 602.805 270.077C603.134 269.718 603.591 269.504 604.077 269.483C604.561 269.472 605.031 269.649 605.388 269.977C605.746 270.304 605.964 270.757 605.997 271.242L606.052 272.44L607.206 299.294L638.742 268.792C639.097 268.473 639.56 268.304 640.036 268.322C640.512 268.339 640.963 268.54 641.293 268.884C641.624 269.227 641.809 269.686 641.81 270.163C641.811 270.641 641.627 271.1 641.297 271.445L609.824 301.874L640.129 303.784C640.374 303.799 640.613 303.862 640.833 303.971C641.053 304.08 641.249 304.231 641.41 304.417C641.57 304.602 641.693 304.818 641.77 305.052C641.846 305.285 641.876 305.532 641.857 305.777Z" fill="white"/>
<path d="M311.88 155.504C308.047 156.875 304.619 159.19 301.91 162.236C296.823 167.901 295.277 174.141 294.19 178.437C293.488 181.242 293.042 184.104 292.857 186.989H277.898C278.085 184.104 278.532 181.242 279.233 178.437C280.309 174.13 281.866 167.889 286.954 162.236C293.659 154.775 303.513 152.457 311.88 155.504Z" fill="#799AE1"/>
<path d="M405.716 178.478C405.096 198.044 395.789 214.743 383.706 229.475C371.824 243.94 348.408 256.36 348.345 277.28C348.32 286.731 348.292 296.182 348.261 305.632H333.305C333.334 296.182 333.362 286.731 333.389 277.28C333.449 256.36 356.864 243.952 368.749 229.475C380.833 214.743 390.137 198.044 390.757 178.478C391.622 151.06 376.519 124.464 352.296 111.624C349.49 110.14 346.601 108.817 343.644 107.664C334.285 104.027 324.435 101.819 314.424 101.114C329.397 100.029 344.662 102.207 358.603 107.664C361.56 108.818 364.449 110.14 367.255 111.624C391.478 124.464 406.584 151.06 405.716 178.478Z" fill="#799AE1"/>
<path d="M354.148 357.083C354.144 362.396 352.957 367.64 350.673 372.433C348.389 377.226 345.066 381.446 340.947 384.785C336.828 388.123 332.017 390.496 326.866 391.73C321.715 392.963 316.354 393.026 311.176 391.913C319.118 390.202 326.235 385.811 331.34 379.473C336.446 373.135 339.23 365.233 339.23 357.085C339.23 348.936 336.446 341.034 331.34 334.696C326.235 328.358 319.118 323.967 311.176 322.256C316.354 321.141 321.716 321.202 326.867 322.435C332.019 323.667 336.831 326.04 340.95 329.378C345.07 332.717 348.393 336.938 350.677 341.731C352.96 346.525 354.146 351.77 354.148 357.083Z" fill="#799AE1"/>
<path d="M390.757 178.478C390.137 198.044 380.833 214.743 368.749 229.475C356.864 243.94 333.449 256.36 333.389 277.28C333.36 286.731 333.332 296.182 333.305 305.632H271.876V271.818C271.876 258.012 277.97 245.939 286.919 235.732C293.033 228.763 299.32 221.707 306.025 215.298C312.425 209.177 319.546 203.437 323.719 195.429C328.477 186.307 328.823 174.083 323.43 165.184C320.506 160.373 316.422 157.153 311.894 155.504C303.531 152.457 293.673 154.775 286.968 162.236C281.881 167.901 280.335 174.141 279.248 178.437C278.547 181.242 278.1 184.104 277.912 186.989H213.969C214.711 178.868 216.379 170.859 218.941 163.118C220.763 157.607 224.132 147.707 231.725 137.107C250.517 110.915 283.02 98.8455 314.421 101.114C324.433 101.819 334.282 104.027 343.641 107.664C346.598 108.817 349.487 110.14 352.293 111.624C376.519 124.464 391.634 151.06 390.757 178.478Z" fill="#001BFE"/>
<path d="M339.24 357.083C339.234 364.44 336.955 371.614 332.717 377.617C328.479 383.621 322.491 388.16 315.576 390.609C308.661 393.058 301.159 393.296 294.103 391.292C287.047 389.288 280.783 385.139 276.175 379.417C271.566 373.695 268.838 366.68 268.367 359.339C267.896 351.997 269.705 344.69 273.545 338.422C277.384 332.154 283.066 327.235 289.807 324.34C296.549 321.444 304.02 320.717 311.191 322.256C319.131 323.968 326.247 328.359 331.351 334.697C336.455 341.034 339.24 348.936 339.24 357.083Z" fill="#001BFE"/>
<path d="M532.487 100.845L515.051 305.644H445.778L428.8 100.845H532.487Z" fill="#001BFE"/>
<path d="M547.029 100.845L529.592 305.644H515.051L532.487 100.845H547.029Z" fill="#799AE1"/>
<path d="M516.155 357.08C516.157 365.23 513.373 373.133 508.268 379.473C503.163 385.812 496.045 390.204 488.103 391.916L487.892 391.959C485.508 392.462 483.078 392.714 480.642 392.712C471.225 392.712 462.193 388.959 455.534 382.279C448.875 375.599 445.134 366.539 445.134 357.092C445.134 347.645 448.875 338.585 455.534 331.905C462.193 325.225 471.225 321.472 480.642 321.472C483.081 321.469 485.514 321.721 487.901 322.224C487.969 322.229 488.037 322.24 488.103 322.256C496.043 323.969 503.158 328.36 508.262 334.697C513.367 341.033 516.152 348.933 516.155 357.08Z" fill="#001BFE"/>
<path d="M530.696 357.08C530.698 365.23 527.914 373.133 522.809 379.473C517.704 385.812 510.586 390.204 502.644 391.916C500.193 392.449 497.691 392.716 495.183 392.712C492.733 392.714 490.29 392.462 487.892 391.959L488.103 391.916C496.044 390.204 503.16 385.812 508.264 379.474C513.369 373.136 516.153 365.234 516.153 357.086C516.153 348.938 513.369 341.036 508.264 334.698C503.16 328.36 496.044 323.968 488.103 322.256C488.037 322.24 487.969 322.229 487.901 322.224C493.07 321.135 498.416 321.217 503.55 322.464C508.684 323.71 513.475 326.09 517.575 329.431C521.676 332.771 524.981 336.987 527.251 341.771C529.521 346.555 530.698 351.787 530.696 357.086V357.08Z" fill="#799AE1"/>
<path d="M183.197 299.971C182.891 307.461 183.485 310.545 183.655 316.357C183.829 322.921 183.399 329.487 182.372 335.972C181.74 329.558 180.889 322.447 179.805 311.861C179.315 307.033 178.623 300.049 177.873 291.462C180.258 284.66 183.064 276.097 185.91 266.026C185.786 269.338 185.527 274.76 184.918 281.487C184.137 290.23 183.462 293.476 183.197 299.971Z" fill="#122A4F"/>
<path d="M136.193 373.18C136.539 373.299 136.903 373.42 137.278 373.536C137.869 373.721 138.489 373.898 139.144 374.051C141.411 374.586 143.736 374.835 146.065 374.792C146.302 374.792 146.535 374.792 146.763 374.774C151.115 363.656 154.507 354.523 156.788 348.279C161.613 335.084 162.804 331.115 167.502 318.66C171.998 306.746 172.615 305.861 175.609 297.752C176.304 295.865 177.051 293.765 177.867 291.462C180.255 284.66 183.058 276.097 185.907 266.026C185.783 269.338 185.524 274.76 184.915 281.487C184.134 290.229 183.459 293.476 183.185 299.971C182.879 307.461 183.473 310.548 183.644 316.357C183.817 322.921 183.387 329.487 182.36 335.972C182.879 341.252 183.248 346.06 183.471 351.942C183.828 361.232 183.646 368.739 183.471 373.25C183.799 373.316 184.14 373.383 184.491 373.438C185.582 373.622 186.685 373.729 187.791 373.759C189.684 373.813 191.576 373.642 193.429 373.25C193.931 373.146 194.398 373.03 194.833 372.911C196.757 361.021 198.147 350.658 199.159 342.305C200.244 333.247 201.934 318.998 202.995 300.196C203.722 287.333 203.86 277.543 203.955 270.429C204.039 264.027 204.042 258.029 203.99 252.492C203.944 247.788 203.86 243.422 203.756 239.43C203.425 238.029 203.116 236.687 202.831 235.411L156.932 244.464C155.934 248.207 155.069 251.769 154.337 255.148C154.229 255.64 154.123 256.122 154.019 256.594C153.731 257.969 153.442 259.308 153.189 260.613C151.799 267.64 150.925 273.632 150.351 278.423C149.428 286.075 149.486 288.806 148.153 299.482C146.853 309.897 145.523 317.575 143.963 326.486C141.059 343.072 139.585 348.444 137.506 363.144C136.9 367.391 136.462 370.883 136.193 373.18Z" fill="#20468F"/>
<path d="M146.068 374.792C145.886 376.146 145.693 377.494 145.491 378.842C145.092 378.756 144.71 378.605 144.361 378.394C143.755 378.015 143.671 377.696 142.852 377.011C142.175 376.432 141.661 376.007 140.914 375.804C139.787 375.515 138.803 375.888 138.195 376.128C137.696 376.324 137.225 376.585 136.796 376.907C136.952 375.784 137.107 374.653 137.263 373.53C137.854 373.716 138.475 373.892 139.129 374.045C141.402 374.584 143.733 374.835 146.068 374.792Z" fill="#FFA6AA"/>
<path d="M145.382 392.706H125.413C125.212 392.701 125.013 392.657 124.829 392.574C124.645 392.492 124.48 392.374 124.342 392.226C124.204 392.079 124.097 391.905 124.027 391.716C123.957 391.527 123.925 391.325 123.933 391.123C123.93 390.261 124.161 389.413 124.603 388.673C125.024 388.002 126.388 387.226 129.093 385.661C130.867 384.649 131.743 384.215 133.081 383.185C134.705 381.946 135.181 381.249 135.461 380.74C135.938 379.849 136.201 378.858 136.231 377.847C136.234 377.702 136.268 377.559 136.329 377.428C136.391 377.297 136.479 377.181 136.588 377.086L136.81 376.91C137.24 376.588 137.71 376.326 138.209 376.131C138.818 375.891 139.801 375.506 140.929 375.807C141.676 376.01 142.189 376.444 142.867 377.014C143.686 377.699 143.77 378.018 144.375 378.397C144.725 378.608 145.107 378.759 145.506 378.845C145.748 378.906 145.963 379.049 146.113 379.249C146.263 379.45 146.34 379.697 146.33 379.947C146.225 382.746 146.308 385.549 146.579 388.337C146.662 389.205 146.763 390.033 146.867 390.84C146.908 391.062 146.9 391.291 146.845 391.511C146.79 391.73 146.689 391.935 146.548 392.112C146.407 392.289 146.23 392.434 146.029 392.536C145.828 392.638 145.607 392.696 145.382 392.706Z" fill="#122A4F"/>
<path d="M213.92 392.706H182.331C182.176 392.701 182.024 392.663 181.884 392.594C181.745 392.525 181.621 392.428 181.522 392.308C181.423 392.187 181.351 392.048 181.31 391.897C181.269 391.747 181.26 391.59 181.284 391.436C181.85 387.112 182.417 382.784 182.986 378.454C182.998 378.333 183.037 378.216 183.101 378.112C183.165 378.009 183.252 377.921 183.355 377.856C183.458 377.791 183.575 377.751 183.696 377.738C183.817 377.726 183.939 377.741 184.053 377.783L184.194 377.838C185.179 378.221 186.227 378.417 187.283 378.417C188.788 378.39 190.265 378.003 191.592 377.288C192.506 376.84 192.817 376.34 193.241 376.062C193.42 375.944 193.625 375.873 193.838 375.854C194.741 375.764 195.41 376.334 196.815 377.523C198.51 378.943 200.218 380.364 200.939 380.945C202.459 382.163 203.578 383.06 205.247 383.838C206.092 384.226 207.673 384.706 210.837 385.707C212.382 386.191 213.098 386.393 213.747 387.154C214.468 387.993 214.56 388.89 214.851 390.423C214.9 390.686 214.958 390.97 215.021 391.291C215.055 391.458 215.053 391.631 215.014 391.797C214.975 391.963 214.9 392.119 214.795 392.253C214.691 392.388 214.558 392.498 214.407 392.576C214.256 392.654 214.09 392.698 213.92 392.706Z" fill="#122A4F"/>
<path d="M193.44 373.25C193.377 374.181 193.311 375.119 193.241 376.053C192.817 376.342 192.506 376.831 191.592 377.28C190.265 377.994 188.788 378.381 187.283 378.408C186.227 378.409 185.179 378.213 184.194 377.83C184.295 376.36 184.399 374.896 184.503 373.429C185.594 373.613 186.696 373.72 187.802 373.75C189.695 373.807 191.587 373.639 193.44 373.25Z" fill="#FFA6AA"/>
<path d="M164.448 259.276C162.717 261.822 158.236 261.382 157.304 261.301C155.776 261.151 152.912 260.604 148.029 256.774C147.678 254.779 148.09 252.725 149.183 251.022C149.961 249.86 151.037 248.931 152.297 248.332C152.427 248.56 152.554 248.78 152.675 248.988C153.261 249.487 153.919 249.893 154.628 250.192C155.354 250.472 156.109 250.666 156.88 250.771C158.265 251.142 159.534 251.856 160.572 252.848C161.492 253.733 161.223 253.927 162.071 254.621C163.441 255.747 164.43 255.475 164.921 256.308C165.448 257.179 164.952 258.527 164.448 259.276Z" fill="#FFA6AA"/>
<path d="M237.453 108.196C237.398 108.578 237.164 109.975 235.705 111.974C235.914 113.424 236.227 114.857 236.642 116.262C237.124 118.067 237.537 120.891 237.335 125.5C234.58 125.392 231.836 125.897 229.3 126.981C229.307 125.896 229.254 124.811 229.141 123.732C228.887 121.322 228.564 121.044 228.178 118.31C227.818 116.001 227.708 113.659 227.849 111.326C227.937 109.169 228.352 107.037 229.081 105.005C229.897 102.812 231.745 99.1145 233.101 99.372C233.744 99.4964 234.056 100.466 234.572 102.083C234.82 102.858 235.201 104.209 235.414 107.14C236.363 106.11 236.804 105.563 237.144 105.693C237.759 105.931 237.453 108.054 237.453 108.196Z" fill="#FFA6AA"/>
<path d="M240.568 139.765C240.513 145.217 239.789 150.641 238.41 155.915C237.545 159.181 236.593 162.766 234.327 166.882C232.945 169.394 230.396 173.337 224.472 178.513C216.72 185.283 208.247 189.749 201.455 192.625C202.075 195.741 202.539 198.527 202.897 200.928C204.659 212.81 204.847 222.69 205.06 233.849C205.17 239.621 205.138 244.42 205.089 247.773C202.209 249.516 199.123 250.893 195.903 251.87C193.997 252.449 188.644 253.895 177.417 253.195C170.13 252.72 162.909 251.508 155.865 249.576C155.949 246.683 156.116 242.138 156.465 236.508C156.944 228.766 157.33 226.04 157.486 220.911C157.633 215.728 157.472 210.541 157.004 205.378C154.127 207.857 151.745 210.86 149.982 214.228C147.797 218.542 146.627 223.3 146.561 228.138C146.472 233.924 148.003 238.287 149.142 241.446C149.833 243.357 150.653 245.219 151.597 247.018C151.839 247.483 152.074 247.916 152.303 248.317C151.047 248.924 149.976 249.858 149.203 251.022C148.11 252.725 147.698 254.779 148.049 256.774L147.721 256.513C143.569 253.15 139.999 249.122 137.157 244.591C135.19 241.51 132.813 237.714 131.334 232.067C130.235 227.764 129.86 223.307 130.223 218.88C130.613 214.046 131.769 210.568 132.865 207.348C134.668 202.102 137.161 197.121 140.277 192.536C142.91 188.644 145.359 185.013 149.762 181.516C155.666 176.812 161.552 175.113 166.149 173.84C166.726 173.678 167.303 173.528 167.88 173.389C168.361 175.22 169.512 178.108 172.266 180.182C176.085 183.049 182.827 184.232 186.398 180.257C188.489 177.943 189.019 174.358 188.01 170.91C191.148 170.71 192.967 170.635 196.186 169.926C200.171 169.039 204.042 167.695 207.722 165.922C212.23 163.752 215.656 162.103 218.857 158.484C221.228 155.805 222.396 153.262 223.869 150.053C225.6 146.269 226.387 143.292 227.382 139.485C228.213 136.302 228.96 133.38 229.213 129.431C229.257 128.743 229.306 127.933 229.311 126.99C231.848 125.906 234.592 125.4 237.346 125.508C238.119 125.539 238.89 125.618 239.653 125.743C240.385 130.379 240.691 135.073 240.568 139.765Z" fill="url(#paint4_linear_240_3335)"/>
<path opacity="0.5" d="M240.568 139.765C240.512 145.217 239.787 150.641 238.41 155.915C237.545 159.181 236.593 162.765 234.327 166.882C232.945 169.394 230.396 173.334 224.469 178.513C216.72 185.282 208.247 189.749 201.455 192.625C200.774 189.2 199.906 185.392 198.79 181.232C204.157 180.821 211.529 179.288 218.69 174.506C226.153 169.53 230.038 163.275 231.521 160.824C235.301 154.581 236.562 149.041 237.733 143.888C239.085 137.934 239.72 131.839 239.625 125.734C240.366 130.372 240.682 135.069 240.568 139.765Z" fill="#DC8923"/>
<path opacity="0.5" d="M162.022 223.196C161.454 228.151 160.544 233.06 159.297 237.888C158.143 242.621 156.889 246.584 155.853 249.582C155.937 246.688 156.104 242.14 156.453 236.513C156.932 228.771 157.318 226.046 157.474 220.917C157.621 215.734 157.46 210.547 156.993 205.384C154.116 207.862 151.733 210.865 149.97 214.234C147.784 218.547 146.614 223.306 146.55 228.144C146.46 233.93 147.992 238.293 149.131 241.452C149.822 243.362 150.641 245.224 151.582 247.024C149.817 245.29 148.293 243.327 147.049 241.186C144.258 236.304 142.97 230.703 143.346 225.089C143.819 218.07 146.844 213.27 151 206.683C153.554 202.632 156.503 198.844 159.802 195.376C161.231 199.766 162.143 204.308 162.518 208.91C162.977 214.569 162.504 218.854 162.022 223.196Z" fill="#DC8923"/>
<path d="M192.408 146.159C191.384 147.866 189.622 148.474 188.298 148.798C188.102 148.841 187.918 148.89 187.747 148.928C184.835 149.602 181.855 148.829 181.501 148.731C180.625 148.465 179.724 148.292 178.813 148.216C178.01 148.159 177.203 148.183 176.405 148.288C176.509 148.592 177.405 151.265 175.828 153.456C175.301 154.172 174.596 154.738 173.783 155.096C173.495 154.67 173.087 154.34 172.61 154.15C172.133 153.96 171.611 153.917 171.11 154.028C169.815 154.376 169.18 155.9 169.457 157.136C169.599 157.705 169.914 158.217 170.357 158.6C170.801 158.984 171.352 159.22 171.935 159.276C171.865 160.951 171.799 162.627 171.736 164.305C171.116 163.971 170.536 163.569 170.005 163.107C168.436 161.744 167.77 160.249 166.859 158.125C166.06 156.268 165.169 154.208 164.889 151.274C164.69 149.223 164.523 147.481 165.342 145.427C166.077 143.824 167.167 142.41 168.53 141.294C169.892 140.177 171.491 139.387 173.203 138.984C174.152 138.793 175.124 138.741 176.087 138.831C176.148 138.773 176.209 138.724 176.275 138.672C178.184 137.141 181.466 136.221 183.773 137.842C184.285 138.206 184.722 138.665 185.06 139.195C185.977 138.646 188.414 137.344 190.554 138.472C192.073 139.276 192.61 140.865 192.797 141.426C192.927 141.762 193.66 144.065 192.408 146.159Z" fill="#122A4F"/>
<path d="M169.408 156.829C169.419 156.932 169.435 157.034 169.457 157.136C169.474 157.205 169.492 157.274 169.512 157.344C169.532 157.413 169.584 157.546 169.627 157.633C169.701 157.794 169.789 157.947 169.893 158.09C169.916 158.119 169.936 158.148 169.959 158.174C170.024 158.259 170.094 158.339 170.17 158.414L170.247 158.49L170.328 158.562C170.38 158.608 170.438 158.654 170.495 158.698C170.553 158.741 170.614 158.782 170.674 158.819C170.925 158.979 171.198 159.099 171.485 159.175C171.557 159.195 171.632 159.213 171.707 159.227L171.935 159.265C171.865 160.939 171.799 162.615 171.736 164.293C171.605 167.506 171.476 170.72 171.349 173.933C171.314 174.76 171.281 175.588 171.248 176.415C172.227 177.554 173.412 178.497 174.741 179.193C175.645 179.662 176.631 179.949 177.645 180.04C179.525 180.141 181.395 179.711 183.044 178.799C184.274 178.141 185.342 177.216 186.17 176.091C186.513 175.612 186.817 175.106 187.078 174.578C186.79 173.91 186.53 173.23 186.259 172.536C184.879 172.621 183.495 172.467 182.167 172.081C182.031 172.044 181.899 172 181.766 171.957L181.619 171.908L181.391 171.827L181.273 171.78C181.146 171.731 181.016 171.682 180.889 171.627L180.757 171.569L180.63 171.514L180.506 171.456C180.327 171.375 180.154 171.289 179.987 171.199C179.894 171.153 179.802 171.103 179.698 171.051L179.329 170.837C179.147 170.727 178.974 170.615 178.804 170.499L178.637 170.383L178.507 170.29L178.374 170.195L178.187 170.05L178.005 169.906C177.867 169.796 177.734 169.686 177.607 169.576C177.512 169.492 177.417 169.408 177.319 169.321C177.159 169.175 177.007 169.027 176.86 168.879L176.719 168.731L176.56 168.56L176.402 168.387C176.128 168.077 175.888 167.779 175.675 167.496L175.56 167.34C175.45 167.189 175.352 167.05 175.271 166.911L175.136 166.706C174.9 166.342 174.684 165.965 174.49 165.578C175.356 166.28 176.33 166.836 177.374 167.224L177.478 167.264L177.602 167.308C178.793 167.72 180.057 167.88 181.313 167.776C182.344 167.695 183.357 167.455 184.315 167.065C184.793 166.868 185.25 166.625 185.68 166.339C186.312 165.914 186.866 165.382 187.318 164.768C188.391 163.295 188.506 161.765 188.714 159.456C188.872 157.627 188.656 156.531 188.463 153.513C188.391 152.339 188.31 150.733 188.29 148.786L188.119 148.827L187.895 148.882H187.84L187.739 148.905C186.515 149.168 185.259 149.244 184.013 149.13H183.987C183.724 149.11 183.479 149.081 183.248 149.049L182.96 149.012C182.741 148.98 182.539 148.945 182.36 148.911L182.155 148.87L181.974 148.832C181.72 148.777 181.547 148.728 181.478 148.711C180.602 148.445 179.701 148.272 178.79 148.196H178.568C178.034 148.166 177.499 148.174 176.967 148.219C176.748 148.236 176.549 148.26 176.39 148.28C176.408 148.338 176.457 148.477 176.511 148.679C176.511 148.737 176.537 148.795 176.555 148.861C176.572 148.928 176.584 148.994 176.601 149.067C176.824 150.105 176.775 151.184 176.457 152.197C176.305 152.644 176.087 153.065 175.811 153.447C175.478 153.906 175.068 154.304 174.599 154.621C174.53 154.671 174.458 154.717 174.389 154.76C174.19 154.883 173.982 154.992 173.769 155.087C173.641 154.909 173.493 154.746 173.328 154.601C173.208 154.494 173.08 154.397 172.944 154.312C172.642 154.124 172.304 154.002 171.952 153.953C171.663 153.914 171.369 153.932 171.087 154.008C170.79 154.089 170.515 154.235 170.282 154.436C170.23 154.479 170.181 154.524 170.135 154.572C169.859 154.873 169.651 155.231 169.525 155.621C169.4 156.01 169.36 156.422 169.408 156.829Z" fill="#FFA6AA"/>
<path d="M186.383 180.248C182.807 184.235 176.064 183.04 172.252 180.173C169.498 178.099 168.347 175.212 167.865 173.38C173.002 172.125 177.754 171.723 184.142 171.182C185.665 171.051 186.911 170.967 188.001 170.892C189.002 174.355 188.474 177.92 186.383 180.248Z" fill="#FFA6AA"/>
<path d="M186.262 172.547C184.881 172.633 183.496 172.479 182.167 172.093C177.117 170.614 174.882 166.35 174.501 165.589C175.11 166.09 177.691 168.092 181.322 167.788C182.353 167.706 183.366 167.466 184.324 167.076C184.764 168.461 185.256 169.879 185.798 171.329C185.948 171.751 186.118 172.145 186.262 172.547Z" fill="#FF797D"/>
<path d="M566.083 286.847C566.334 290.608 566.66 293.212 568.904 307.03C571.381 322.453 571.211 320.85 571.874 325.256C573.01 332.819 573.356 336.557 575.94 360.48C576.716 367.66 577.351 373.415 577.714 376.782C578.706 377.152 579.722 377.454 580.754 377.688C584.199 378.48 587.77 378.548 591.243 377.887C591.416 377.858 591.589 377.824 591.75 377.792C591.75 374.508 591.8 369.159 592.062 362.545C592.558 350.273 593.262 347.4 593.942 333.658C594.265 327.174 594.283 324.215 594.366 321.657C593.233 317.873 592.206 313.802 591.358 309.466C588.658 295.582 588.244 281.349 590.133 267.331C590.32 276.052 591.141 284.749 592.587 293.351C593.371 298.303 594.403 303.212 595.678 308.06C595.889 308.838 596.108 309.636 596.342 310.461C598.17 316.849 599.053 318.206 601.351 325.757C603.604 333.151 603.148 333.146 605.781 342.768C607.304 348.308 609.441 356.039 612.991 365.511C614.938 370.718 616.757 374.98 618.107 377.992C619.044 378.072 619.985 378.103 620.925 378.084C622.734 378.044 624.533 377.811 626.292 377.387C627.128 377.184 627.904 376.956 628.622 376.707C629.199 376.507 629.756 376.293 630.257 376.079C628.942 369.694 627.434 361.706 626.018 352.463C624.919 345.291 623.177 333.773 622.119 319.192C621.254 307.299 621.36 300.24 620.233 276.374C620.233 276.374 620.042 272.417 619.01 262.47C618.465 257.263 618.006 253.791 616.763 249.512C616.198 247.559 615.524 245.639 614.744 243.761C614.274 243.908 613.784 244.05 613.302 244.197L613.014 244.284C612.619 244.4 612.221 244.513 611.814 244.623C611.307 244.767 610.793 244.912 610.269 245.034C609.744 245.155 609.216 245.297 608.679 245.424C607.659 245.667 606.608 245.896 605.527 246.11C605.331 246.15 605.132 246.191 604.93 246.226C604.512 246.309 604.082 246.385 603.653 246.46C603.076 246.564 602.482 246.662 601.885 246.749C601.406 246.824 600.93 246.894 600.443 246.955C599.955 247.015 599.5 247.088 599.035 247.14C598.571 247.192 598.17 247.25 597.732 247.29C597.623 247.308 597.513 247.319 597.403 247.325C597.034 247.365 596.665 247.406 596.301 247.435C595.361 247.518 594.433 247.586 593.518 247.64C593.077 247.675 592.639 247.698 592.209 247.71C591.779 247.721 591.344 247.75 590.897 247.762C589.488 247.808 588.114 247.82 586.776 247.796C586.603 247.796 586.435 247.796 586.274 247.796C585.959 247.796 585.642 247.796 585.331 247.773C584.754 247.756 584.203 247.733 583.655 247.71C583.231 247.687 582.813 247.663 582.401 247.634C581.124 247.553 579.882 247.45 578.674 247.325C578.311 247.29 577.953 247.25 577.593 247.203C577.305 247.174 577.016 247.134 576.711 247.099C576.238 247.041 575.773 246.978 575.32 246.911C574.744 246.836 574.167 246.749 573.59 246.657C573.227 246.599 572.869 246.541 572.517 246.477C572.229 246.425 571.94 246.379 571.652 246.321C571.283 246.26 570.925 246.191 570.568 246.121C570.279 246.069 570.023 246.017 569.754 245.959C569.319 247.695 568.834 249.761 568.37 252.11C567.356 257.346 566.658 262.638 566.279 267.958C565.787 274.243 565.721 280.554 566.083 286.847Z" fill="#20468F"/>
<path d="M591.358 309.463C592.206 313.802 593.233 317.87 594.366 321.654C594.427 319.765 594.516 318.096 594.779 315.388C595.035 312.784 595.355 310.342 595.678 308.057C594.403 303.209 593.371 298.3 592.587 293.348C591.141 284.746 590.32 276.049 590.133 267.328C588.244 281.346 588.658 295.579 591.358 309.463Z" fill="#122A4F"/>
<path d="M617.914 392.706H634.529C634.705 390.655 634.333 388.593 633.45 386.734C632.656 385.073 631.491 383.617 630.047 382.479C629.136 383.962 627.785 385.122 626.182 385.794C625.317 386.141 624.402 386.346 623.471 386.399C622.048 386.425 620.648 386.028 619.448 385.259C618.427 388.204 618.044 388.792 617.871 390.125C617.764 390.983 617.779 391.852 617.914 392.706Z" fill="#122A4F"/>
<path d="M619.448 385.262C620.648 386.031 622.048 386.428 623.471 386.402C624.402 386.348 625.317 386.144 626.182 385.797C627.785 385.125 629.136 383.965 630.047 382.482C629.548 381.515 629.172 380.49 628.928 379.429C628.725 378.533 628.62 377.617 628.614 376.698C627.895 376.947 627.12 377.176 626.283 377.378C624.524 377.802 622.725 378.036 620.916 378.075C620.978 379.306 620.865 380.539 620.582 381.738C620.42 382.412 620.14 383.242 619.572 384.894C619.532 385.019 619.489 385.14 619.448 385.262Z" fill="#FFA6AA"/>
<path d="M573.512 385.699C574.193 385.751 574.879 385.829 575.583 385.898C577.48 386.116 579.395 386.138 581.296 385.962C585.334 385.531 589.083 383.856 592.881 382.618C592.659 381.75 592.391 380.853 592.056 379.921C591.8 379.195 591.526 378.515 591.243 377.876C587.77 378.536 584.199 378.468 580.754 377.676C580.642 378.044 580.51 378.405 580.359 378.758C580.119 379.317 579.543 380.52 578.037 382.114C576.7 383.511 575.177 384.717 573.512 385.699Z" fill="#FFA6AA"/>
<path d="M563.124 392.706H593.08C593.411 392.712 593.74 392.652 594.048 392.529C594.355 392.406 594.635 392.222 594.871 391.988C595.106 391.755 595.293 391.476 595.419 391.169C595.545 390.862 595.609 390.533 595.606 390.2C595.58 389.249 595.554 388.326 595.537 387.414C595.505 386.182 595.477 384.42 594.199 383.323C593.814 382.998 593.365 382.758 592.881 382.618C589.077 383.856 585.328 385.531 581.296 385.962C579.394 386.138 577.48 386.116 575.583 385.898C574.879 385.829 574.193 385.751 573.512 385.699C572.41 385.585 571.298 385.617 570.204 385.794C567.057 386.41 564.194 388.035 562.045 390.423C561.865 390.624 561.748 390.874 561.709 391.141C561.67 391.408 561.711 391.681 561.826 391.925C561.942 392.169 562.126 392.374 562.357 392.512C562.588 392.651 562.855 392.719 563.124 392.706Z" fill="#122A4F"/>
<path d="M569.44 282.505C569.281 281.53 569.152 280.549 569.016 279.571L569.44 282.505Z" fill="#20468F"/>
<path d="M565.201 188.048C565.252 188.534 565.307 189.02 565.368 189.495C565.887 193.564 566.842 197.565 568.217 201.429C570.622 208.138 574.374 214.462 579.609 219.334C585.394 224.724 592.815 227.49 600.521 228.676C616.547 231.135 634.733 226.738 645.525 213.991C648.155 210.886 651.051 207.389 652.533 201.84C653.851 196.907 653.886 191.294 651.737 186.579C649.906 182.546 646.889 179.956 643.734 176.968C640.905 174.289 639.258 171.853 638.907 167.883C638.647 164.961 638.367 162.074 636.718 159.563C634.598 156.337 630.849 154.546 627.281 153.45C620.962 151.506 615.099 150.707 610.799 145.155C609.069 142.904 607.411 140.587 604.976 139.028C603.788 138.261 602.28 137.292 600.074 137.031C598.357 136.876 596.629 137.136 595.034 137.791C593.439 138.445 592.024 139.475 590.908 140.792C590.503 141.294 590.151 141.837 589.859 142.413C586.833 141.724 583.318 142.783 582.144 145.884C581.279 148.164 582.13 150.513 582.432 152.808C582.717 155.002 582.161 157.222 580.878 159.022C578.735 162.164 575.309 163.868 572.705 166.544C569.957 169.354 567.861 172.737 566.565 176.453C565.269 180.168 564.805 184.124 565.206 188.04L565.201 188.048Z" fill="#122A4F"/>
<path d="M587.041 162.89C587.811 164.842 589.274 166.439 591.148 167.374C591.573 167.581 592.016 167.748 592.472 167.875C594.258 168.335 596.143 168.226 597.865 167.562C599.12 167.08 600.251 166.322 601.175 165.343C600.872 166.684 600.268 167.938 599.408 169.009C597.42 171.451 594.505 172.24 592.183 172.437C591.977 175.668 591.772 178.9 591.566 182.135L608.55 179.745C607.828 177.795 607.208 175.809 606.692 173.794C605.977 170.979 605.51 169.107 605.539 166.599C605.552 165.137 605.728 163.682 606.064 162.259C607.552 162.334 608.873 161.62 609.392 160.471C609.547 160.123 609.63 159.747 609.635 159.365C609.641 158.984 609.569 158.605 609.424 158.252C608.832 156.916 607.321 156.658 607.212 156.638C605.798 156.418 605.383 157.48 603.517 158.024C601.559 158.602 598.929 158.33 597.461 156.806C596.835 156.161 596.596 155.481 596.226 154.393C595.497 152.275 596.03 151.613 595.33 149.561C594.981 148.537 594.617 147.473 593.599 146.694C592.235 145.644 590.571 145.783 589.983 145.861C589.002 149.356 588.023 152.85 587.047 156.343C586.222 158.447 586.22 160.785 587.041 162.89Z" fill="#FFA6AA"/>
<path d="M603.823 157.937C603.424 158.16 603.001 158.338 602.563 158.466C600.601 159.045 597.971 158.773 596.506 157.248C595.877 156.603 595.641 155.923 595.272 154.835C594.542 152.721 595.076 152.055 594.375 150.007C594.026 148.977 593.663 147.915 592.645 147.137C591.842 146.549 590.872 146.239 589.879 146.252C589.913 146.124 589.951 146 589.985 145.876C590.562 145.795 592.241 145.656 593.599 146.706C594.614 147.487 594.975 148.549 595.329 149.573C596.03 151.627 595.497 152.29 596.229 154.404C596.601 155.492 596.835 156.172 597.464 156.817C598.937 158.342 601.57 158.611 603.52 158.035C603.624 158.003 603.719 157.972 603.823 157.937Z" fill="#FF797D"/>
<path d="M592.183 172.437C594.505 172.24 597.42 171.451 599.408 169.009C600.268 167.938 600.872 166.684 601.175 165.343C600.251 166.322 599.12 167.08 597.865 167.562C596.143 168.226 594.258 168.335 592.472 167.875C592.377 169.396 592.281 170.917 592.183 172.437Z" fill="#FF797D"/>
<path d="M569.365 219.126C569.172 221.033 568.999 222.765 568.852 224.386C568.529 227.947 568.312 230.962 568.197 234.08C568.197 234.208 568.197 234.341 568.197 234.471C566.119 233.102 564.35 231.31 563.006 229.211C561.901 227.543 561.128 225.677 560.73 223.714C560.518 222.635 560.463 221.531 560.569 220.437C561.179 219.446 562.075 218.665 563.138 218.197C564.964 217.436 566.948 217.931 567.04 217.954C567.888 218.177 568.68 218.577 569.365 219.126Z" fill="#F2949B"/>
<path d="M637.346 213.927C636.143 208.702 634.624 203.555 632.795 198.515C630.488 192.13 629.355 188.939 627.587 186.477C622.993 180.089 616.512 177.567 612.553 176.027C611.858 175.756 611.171 175.512 610.493 175.29C603.223 172.917 596.939 173.265 591.171 174.014C589.994 174.167 588.841 174.338 587.71 174.506C585.155 174.879 582.571 175.463 580.128 177.35C579.303 178.151 578.533 178.949 577.821 179.734V179.751C576.86 181.106 576.047 182.561 575.395 184.091C573.088 189.266 572.768 193.655 571.77 199.239C571.064 203.194 570.674 206.865 569.924 214.054C569.737 215.883 569.558 217.558 569.4 219.117C569.209 221.027 569.033 222.76 568.886 224.38C568.563 227.941 568.347 230.956 568.232 234.075C569.913 234.861 571.788 235.032 573.815 235.232C576.768 235.521 578.464 234.911 583.312 234.506C585.172 234.349 586.81 234.283 588.134 234.254H588.422C589.068 234.254 589.631 234.254 590.101 234.254C589.928 234.676 589.717 235.082 589.472 235.466C589.289 235.758 589.086 236.037 588.866 236.302C589.034 236.103 594.271 238.672 594.805 238.923C596.658 239.768 598.554 240.515 600.486 241.16C605.614 242.936 610.964 244.452 616.328 245.3C619.5 246.049 621.807 246.315 624.115 245.965C626.214 245.65 631.091 244.843 634.866 240.804C637.845 237.621 638.638 234.014 639.152 231.546C640.155 226.55 639.232 222.276 637.346 213.927ZM620.53 226.165C619.492 228.089 617.383 228.89 615.298 229.347C615.122 223.483 615.171 217.873 615.388 212.544C617.492 214.225 619.109 216.441 620.071 218.961C620.734 220.755 621.851 223.723 620.53 226.165ZM616.651 248.731C616.596 248.225 616.541 247.718 616.489 247.209C610.606 245.971 605.53 244.953 601.063 244.183C599.001 243.827 595.704 243.289 592.411 241.29C591.617 240.81 590.861 240.267 590.153 239.667C588.994 238.683 587.963 237.559 587.081 236.32C586.447 236.432 581.224 237.344 577.045 237.624C575.854 237.725 574.658 237.733 573.466 237.647C572.842 237.582 572.222 237.476 571.612 237.329C570.391 237.017 569.224 236.522 568.151 235.86C568.136 236.438 568.125 237.017 568.119 237.619C568.059 242.505 568.214 246.526 568.37 249.22C573.202 251.034 578.23 252.274 583.349 252.914C589.682 253.665 596.087 253.537 602.384 252.532C607.259 251.768 612.042 250.5 616.657 248.748C616.657 248.748 616.651 248.728 616.651 248.725V248.731Z" fill="url(#paint5_linear_240_3335)"/>
<path d="M616.489 247.203C610.606 245.968 605.53 244.947 601.063 244.177C599.001 243.821 595.704 243.283 592.411 241.284C591.617 240.803 590.862 240.26 590.153 239.661C588.995 238.677 587.963 237.553 587.081 236.314C586.447 236.427 581.224 237.341 577.045 237.621C575.854 237.722 574.658 237.728 573.466 237.642C572.841 237.578 572.222 237.471 571.612 237.323C570.391 237.012 569.224 236.516 568.151 235.854V235.501C568.151 235.156 568.171 234.812 568.185 234.474C568.185 234.344 568.185 234.21 568.185 234.083C569.867 234.87 571.741 235.041 573.769 235.24C576.722 235.53 578.418 234.919 583.266 234.514C585.126 234.358 586.764 234.291 588.088 234.265H588.376C589.022 234.265 589.585 234.265 590.055 234.265C589.882 234.687 589.671 235.093 589.426 235.478C589.242 235.769 589.04 236.048 588.82 236.314C588.988 236.114 594.225 238.683 594.758 238.935C596.612 239.78 598.508 240.526 600.44 241.171C605.568 242.948 610.917 244.464 616.282 245.311C616.337 245.89 616.395 246.468 616.455 247.047C616.475 247.082 616.481 247.143 616.489 247.203Z" fill="url(#paint6_linear_240_3335)"/>
<path opacity="0.5" d="M616.489 247.203C610.606 245.968 605.53 244.947 601.063 244.177C599.001 243.821 595.704 243.283 592.411 241.284C591.617 240.803 590.862 240.26 590.153 239.661C588.995 238.677 587.963 237.553 587.081 236.314C586.447 236.427 581.224 237.341 577.045 237.621C575.854 237.722 574.658 237.728 573.466 237.642C572.841 237.578 572.222 237.471 571.612 237.323C570.391 237.012 569.224 236.516 568.151 235.854V235.501C568.151 235.156 568.171 234.812 568.185 234.474C568.185 234.344 568.185 234.21 568.185 234.083C569.867 234.87 571.741 235.041 573.769 235.24C576.722 235.53 578.418 234.919 583.266 234.514C585.126 234.358 586.764 234.291 588.088 234.265H588.376C589.022 234.265 589.585 234.265 590.055 234.265C589.882 234.687 589.671 235.093 589.426 235.478C589.242 235.769 589.04 236.048 588.82 236.314C588.988 236.114 594.225 238.683 594.758 238.935C596.612 239.78 598.508 240.526 600.44 241.171C605.568 242.948 610.917 244.464 616.282 245.311C616.337 245.89 616.395 246.468 616.455 247.047C616.475 247.082 616.481 247.143 616.489 247.203Z" fill="#2463ED"/>
<path d="M562.908 211.045C564.061 207.374 565.16 204.42 566.216 201.599C568.811 194.697 570.086 191.239 570.608 190.195C572.501 186.393 574.917 182.878 577.786 179.751C576.825 181.106 576.011 182.561 575.361 184.09C573.054 189.266 572.736 193.655 571.736 199.239C571.029 203.194 570.64 206.868 569.89 214.054C569.702 215.883 569.524 217.561 569.365 219.12C568.68 218.565 567.886 218.161 567.035 217.934C566.942 217.911 564.958 217.416 563.133 218.177C562.069 218.644 561.173 219.425 560.563 220.416C560.727 218.643 561.275 216.366 562.374 212.764C562.553 212.185 562.732 211.607 562.908 211.028" fill="url(#paint7_linear_240_3335)"/>
<path opacity="0.5" d="M562.908 211.045C564.061 207.374 565.16 204.42 566.216 201.599C568.811 194.697 570.086 191.239 570.608 190.195C572.501 186.393 574.917 182.878 577.786 179.751C576.825 181.106 576.011 182.561 575.361 184.09C573.054 189.266 572.736 193.655 571.736 199.239C571.029 203.194 570.64 206.868 569.89 214.054C569.702 215.883 569.524 217.561 569.365 219.12C568.68 218.565 567.886 218.161 567.035 217.934C566.942 217.911 564.958 217.416 563.133 218.177C562.069 218.644 561.173 219.425 560.563 220.416C560.727 218.643 561.275 216.366 562.374 212.764C562.553 212.185 562.732 211.607 562.908 211.028" fill="#2463ED"/>
<path opacity="0.5" d="M627.564 220.914C627.062 216.516 625.346 213.505 622.243 208.184C620.142 204.592 617.771 201.168 615.148 197.94C612.623 200.63 610.732 203.854 609.614 207.374C608.117 212.188 608.587 216.178 609.184 220.801C609.602 224.047 610.168 226.13 611.298 229.894C609.328 229.894 607.139 229.315 599.035 228.077C596.988 227.77 595.517 227.568 594.317 227.325C598.245 230.546 602.912 232.733 607.895 233.69C609.236 233.962 610.894 234.3 612.682 234.537C613.602 234.662 614.554 234.757 615.514 234.806C619.376 235.012 623.353 234.433 625.738 231.641C628.432 228.497 627.907 223.925 627.564 220.914ZM620.53 226.165C619.491 228.089 617.383 228.89 615.295 229.347C615.122 223.483 615.171 217.873 615.388 212.544C617.492 214.225 619.109 216.441 620.071 218.961C620.734 220.755 621.851 223.723 620.53 226.165Z" fill="#2463ED"/>
<path d="M592.068 226.72C592.063 227.704 591.966 228.685 591.779 229.651C591.457 231.26 590.889 232.81 590.095 234.245C589.625 234.245 589.062 234.245 588.416 234.245H588.128C586.804 234.271 585.166 234.338 583.306 234.494C578.458 234.899 576.762 235.501 573.809 235.22C571.79 235.032 569.907 234.861 568.226 234.063C567.545 233.746 566.916 233.329 566.357 232.828C563.248 230.039 563.161 225.56 563.127 223.899C563.115 223.292 563.139 222.684 563.199 222.08C564.666 223.031 566.278 223.736 567.972 224.166C568.214 224.224 568.52 224.302 568.88 224.368C569.931 224.582 571.005 224.663 572.076 224.611C573.925 224.563 575.734 224.067 577.351 223.165C577.874 222.865 578.372 222.521 578.839 222.138C578.62 222.236 578.262 222.389 577.829 222.537C576.748 222.904 575.116 223.454 573.446 222.913C572.906 222.739 571.839 222.395 571.799 221.825C571.718 220.763 575.219 219.777 577.039 219.262C579.819 218.475 580.809 218.712 581.457 218.929C583.078 219.476 583.664 220.633 585.61 222.436C587.073 223.74 588.663 224.893 590.357 225.875C590.901 226.207 591.474 226.49 592.068 226.72Z" fill="#FFA6AA"/>
<path opacity="0.5" d="M590.069 234.242C589.896 234.664 589.685 235.07 589.44 235.454C589.257 235.746 589.054 236.025 588.835 236.291C588.835 236.291 588.14 235.915 588.099 234.265H588.388C589.037 234.242 589.587 234.242 590.069 234.242Z" fill="#2463ED"/>
<path d="M610.493 175.29C608.734 177.118 606.104 179.14 602.531 179.976C598.744 180.862 592.18 180.821 590.879 177.483C590.441 176.354 590.698 175.105 591.168 174.011C596.924 173.262 603.223 172.909 610.493 175.29Z" fill="#FFA6AA"/>
<path d="M577.377 223.159L577.325 223.191C576.873 223.448 576.403 223.671 575.917 223.856L574.925 223.165L572.128 221.215L569.962 219.702L569.325 219.595L562.585 218.46L560.929 218.171L560.234 218.055V217.416C560.234 217.315 560.255 217.215 560.297 217.123C560.339 217.031 560.401 216.949 560.477 216.884C560.554 216.818 560.644 216.769 560.741 216.742C560.838 216.715 560.939 216.709 561.039 216.725L561.252 216.756L569.48 218.032L570.201 218.145C570.392 218.175 570.573 218.249 570.729 218.362L573.57 220.405L576.941 222.829L577.377 223.159Z" fill="#005D85"/>
<path d="M575.917 223.856C574.68 224.329 573.373 224.59 572.05 224.629C570.979 224.683 569.905 224.602 568.855 224.388C568.497 224.316 568.191 224.244 567.946 224.18H567.911L561.613 219.169L560.843 218.553L560.229 218.067L560.924 218.183L562.579 218.472L569.319 219.606L569.956 219.713L572.122 221.226L574.92 223.176L575.917 223.856Z" fill="#00344A"/>
<path d="M411.718 302.554C408.006 298.728 403.246 296.092 398.041 294.979C392.835 293.866 387.418 294.326 382.473 296.301C377.529 298.277 373.279 301.678 370.261 306.076C367.244 310.474 365.594 315.671 365.52 321.01C365.446 326.348 366.952 331.589 369.847 336.069C372.742 340.549 376.896 344.068 381.784 346.18C386.672 348.292 392.075 348.903 397.309 347.935C402.543 346.967 407.374 344.464 411.19 340.743C413.725 338.27 415.749 335.321 417.148 332.064C418.546 328.806 419.291 325.304 419.34 321.758C419.389 318.212 418.741 314.69 417.433 311.395C416.125 308.1 414.183 305.096 411.718 302.554Z" fill="#BC7442"/>
<path d="M418.976 325.37C424.089 311.369 416.92 295.861 402.963 290.732C389.006 285.603 373.547 292.795 368.434 306.796C363.321 320.796 370.49 336.304 384.447 341.433C398.404 346.563 413.863 339.371 418.976 325.37Z" fill="url(#paint8_linear_240_3335)"/>
<path d="M401.612 313.944C403.017 312.246 402.42 309.937 400.17 308.068C397.921 306.199 395.463 305.794 393.041 306.468L390.892 300.532C395.106 299.239 399.833 300.138 404.508 304.004C409.699 308.314 411.366 313.623 407.989 317.714C403.406 323.26 397.084 319.059 394.05 322.733L388.83 318.394C392.845 313.554 399.123 316.962 401.612 313.944Z" fill="white"/>
<path d="M383.561 323.379C385.021 321.611 387.492 321.443 389.427 323.052C391.363 324.66 391.657 327.125 390.195 328.893C388.732 330.661 386.209 330.898 384.274 329.289C382.339 327.681 382.128 325.112 383.561 323.379Z" fill="white"/>
<path d="M96.8511 317.288C106.744 307.364 106.744 291.273 96.8511 281.349C86.958 271.424 70.918 271.424 61.0249 281.349C51.1318 291.273 51.1318 307.364 61.0249 317.288C70.918 327.213 86.9579 327.213 96.8511 317.288Z" fill="#1B85B5"/>
<path d="M100.753 318.609C110.646 308.684 110.646 292.594 100.753 282.669C90.8595 272.745 74.8196 272.745 64.9265 282.669C55.0334 292.594 55.0334 308.684 64.9265 318.609C74.8196 328.533 90.8595 328.533 100.753 318.609Z" fill="url(#paint9_linear_240_3335)"/>
<path d="M83.5519 292.665C82.4762 290.808 80.169 290.582 77.7147 292.014C75.2604 293.447 74.0607 295.567 73.8617 298.015L67.7303 297.992C67.9697 293.692 70.3778 289.651 75.4796 286.674C81.1466 283.367 86.5483 283.616 89.141 288.089C92.6566 294.164 86.7041 298.538 89.0343 302.554L83.3269 305.884C80.2526 300.578 85.4669 295.964 83.5519 292.665Z" fill="white"/>
<path d="M86.087 312.391C84.968 310.455 85.6428 308.135 87.7597 306.894C89.8765 305.653 92.2212 306.217 93.3431 308.152C94.4649 310.088 93.8305 312.492 91.7136 313.716C89.5968 314.939 87.1973 314.286 86.087 312.391Z" fill="white"/>
<path d="M697.509 276.899C708.661 265.711 708.661 247.573 697.509 236.385C686.357 225.198 668.275 225.198 657.123 236.385C645.971 247.573 645.971 265.711 657.123 276.899C668.275 288.086 686.357 288.086 697.509 276.899Z" fill="#BA3E50"/>
<path d="M681.331 281.617C697.022 280.015 708.447 265.957 706.851 250.217C705.254 234.476 691.24 223.015 675.549 224.616C659.859 226.218 648.433 240.276 650.03 256.017C651.626 271.757 665.64 283.218 681.331 281.617Z" fill="url(#paint10_linear_240_3335)"/>
<path d="M681.298 246.104C680.182 244.18 677.797 243.946 675.242 245.43C672.687 246.914 671.461 249.107 671.256 251.641L664.911 251.615C665.157 247.166 667.651 242.982 672.932 239.901C678.798 236.479 684.39 236.719 687.063 241.365C690.703 247.64 684.543 252.182 686.954 256.34L681.047 259.785C677.889 254.289 683.285 249.515 681.298 246.104Z" fill="white"/>
<path d="M683.931 266.515C682.778 264.516 683.47 262.111 685.662 260.833C687.854 259.554 690.276 260.135 691.43 262.135C692.583 264.134 691.937 266.619 689.745 267.895C687.554 269.171 685.068 268.476 683.931 266.515Z" fill="white"/>
</g>
<defs>
<linearGradient id="paint0_linear_240_3335" x1="253.522" y1="335.208" x2="258.265" y2="202.373" gradientUnits="userSpaceOnUse">
<stop stop-color="#19936C"/>
<stop offset="1" stop-color="#6FD45C"/>
</linearGradient>
<linearGradient id="paint1_linear_240_3335" x1="224.406" y1="385.224" x2="220.044" y2="263.027" gradientUnits="userSpaceOnUse">
<stop stop-color="#19936C"/>
<stop offset="1" stop-color="#6FD45C"/>
</linearGradient>
<linearGradient id="paint2_linear_240_3335" x1="549.82" y1="335.208" x2="545.081" y2="202.373" gradientUnits="userSpaceOnUse">
<stop stop-color="#19936C"/>
<stop offset="1" stop-color="#6FD45C"/>
</linearGradient>
<linearGradient id="paint3_linear_240_3335" x1="578.937" y1="385.224" x2="583.299" y2="263.027" gradientUnits="userSpaceOnUse">
<stop stop-color="#19936C"/>
<stop offset="1" stop-color="#6FD45C"/>
</linearGradient>
<linearGradient id="paint4_linear_240_3335" x1="185.334" y1="167.232" x2="185.334" y2="254.873" gradientUnits="userSpaceOnUse">
<stop stop-color="#FCC35B"/>
<stop offset="1" stop-color="#FB9B50"/>
</linearGradient>
<linearGradient id="paint5_linear_240_3335" x1="603.826" y1="174.109" x2="603.826" y2="254.263" gradientUnits="userSpaceOnUse">
<stop stop-color="#349CFF"/>
<stop offset="1" stop-color="#2F85FE"/>
</linearGradient>
<linearGradient id="paint6_linear_240_3335" x1="568.142" y1="240.642" x2="616.489" y2="240.642" gradientUnits="userSpaceOnUse">
<stop stop-color="#349CFF"/>
<stop offset="1" stop-color="#2F85FE"/>
</linearGradient>
<linearGradient id="paint7_linear_240_3335" x1="569.175" y1="186.477" x2="569.175" y2="217.659" gradientUnits="userSpaceOnUse">
<stop stop-color="#349CFF"/>
<stop offset="1" stop-color="#2F85FE"/>
</linearGradient>
<linearGradient id="paint8_linear_240_3335" x1="386.292" y1="286.328" x2="399.51" y2="339.035" gradientUnits="userSpaceOnUse">
<stop stop-color="#FCC35B"/>
<stop offset="1" stop-color="#FB9B50"/>
</linearGradient>
<linearGradient id="paint9_linear_240_3335" x1="54.4839" y1="318.714" x2="98.632" y2="293.31" gradientUnits="userSpaceOnUse">
<stop stop-color="#83CEEB"/>
<stop offset="1" stop-color="#2EA8D9"/>
</linearGradient>
<linearGradient id="paint10_linear_240_3335" x1="693.8" y1="288.767" x2="670.243" y2="234.254" gradientUnits="userSpaceOnUse">
<stop stop-color="#F6070C"/>
<stop offset="1" stop-color="#F95D5E"/>
</linearGradient>
</defs>
</svg>
